<svg version="1" xmlns="http://www.w3.org/2000/svg" width="605.333" height="605.333" viewBox="0 0 454.000000 454.000000"><path d="M446.4 2.3c-2.9 3-4 7.7-1.8 7.7 1.4 0 1.4.1 0 1.6-2.2 2.2-2 3.4.7 3.5 1.4 0 1.7.2.7.6-3.4 1.3-4.1 2.5-2.5 4.3 1.5 1.7 1.1 5-.6 5-.5 0-.9.6-.9 1.4 0 .8-.9 1.8-2 2.1-1.2.4-2.3 1.8-2.6 3.4-.4 2-1.5 3.1-3.9 4-1.8.6-3.6 1.8-3.9 2.6-.6 1.7-6.6 2.1-6.6.4 0-.6-.6-.9-1.4-.6-1.7.7-2.9-3-1.2-3.7.6-.2.3-.5-.6-.5-1-.1-1.9-.9-2-1.9 0-.9-.2-2.2-.2-2.9-.2-1.8-2.6-4.1-2.6-2.4 0 .7-.5.9-1.2.5-.8-.5-.9-.2-.5 1 .4 1 .3 1.5-.3 1.1-.6-.3-1-1.2-1-2 0-1.7-2.8-2.4-5.7-1.3-1.3.4-3 .5-3.8.2-.8-.4-1.5-.1-1.5.6 0 .6-.4.9-.9.5-.9-.5-2.1 2-2.7 5.4-.1.7-1.1 2.1-2.2 3.1-1 1-2.8 3-4 4.4-1.4 1.8-3.3 2.9-5.9 3.2-4.7.6-11.4 2.5-12.9 3.6-.6.5-1.8.6-2.6.3-1.6-.6-13 .8-19.8 2.5-2.5.6-5.8 1.1-7.4 1-1.5 0-5.5.9-8.9 2.1-4.5 1.6-7.3 2-11 1.6-4.6-.6-12.2.5-15.7 2.3-.9.4-3.5.8-5.8.8-4.4.1-9.5 1.4-13.8 3.7-1.6.8-3.8 1-6.6.5-4.2-.8-6.8-.4-6.8.9 0 .4-1.2 1.3-2.7 2-2 .9-2.8.9-3.4 0-.5-.8-2.8-1-7.3-.7-5.6.5-7.1 1-9.2 3.3-1.9 2.1-3.1 2.5-5 2.1-1.3-.4-3.4-.1-4.6.5-1.3.7-3.6 1.4-5.2 1.6-3.6.4-5.9 2.2-3 2.4 1 .1 2.5.1 3.2 0 .6-.1 1.2.2 1.2.7 0 .4 1.5.6 3.3.4 2.9-.3 17 1 40.5 3.7 12.5 1.5 31.7 5.2 32 6.1.2.5 1.1.6 2 .3 1.5-.4 1.5-.3.2.7-1.2.9-.9 1 1.5.6 2.4-.5 2.7-.4 1.2.5-1.3.7-2.7.7-5.3-.1-7.9-2.7-18.3-4.7-20.9-4.2-1.9.3-2.6.1-2.1-.6.5-.9-1.1-1-6-.6-5.2.5-6.5.4-5.9-.6.6-1-.1-1.1-3.1-.6-2.8.5-3.5.4-2.4-.3.9-.7 1-1.1.3-1.1-.6 0-1.4.4-1.8.9-.3.6-1.6.6-3.4 0-1.5-.6-3.2-.9-3.7-.8-3.1.5-20.5-.4-18.4-1l2.5-.8-2.5-.4c-1.4-.3-3.6.2-5 1.1-1.5.9-2.1 1.1-1.7.2.5-.7.3-1.2-.5-1.3-.7-.1-3.3-.3-5.8-.5-2.5-.1-7-.5-10-.8-3-.3-16.7-.8-30.4-1.1-13.6-.3-25.2-.7-25.6-1-.5-.3-1.1-.1-1.5.5-.3.5.2 1 1.2 1.1 1.6 0 1.6.1-.2.9-1.1.5-2.9.8-4 .8-1.6 0-1.5-.2.5-.8l2.5-.8-2.5-.2c-1.8-.2-2-.4-.7-.7 2.2-.6 2.1-1.2-.8-4.6-3-3.4-6.5-3.5-9.3-.2-2.6 3-2.7 3.5-.7 3.5.8 0 1.5.7 1.5 1.6 0 1.1.6 1.5 2 1.1 1.1-.3 2-.1 2 .4s-1.9.8-4.2.8c-2.4-.1-3.5-.3-2.5-.6 2.2-.6 1.2-2.3-1.4-2.3-1.1 0-1.8.3-1.6.7.3.5-4.2.7-10 .5-7.9-.3-10.8 0-11.4 1-.6 1-1.5 1-4.2 0-4.2-1.5-6.9-1.6-4.7-.2 1.1.7.6 1-2 1-5.3-.1-7 .2-6.3 1.3.3.5-.4.6-1.8.3-2.1-.6-2.2-.6-.6.5 1.4.8 2.2.8 3 0 1.8-1.8 3.1-1.3 1.6.6-.8.9-.9 1.4-.4 1.1.6-.4 2.2.2 3.5 1.3 2.4 1.9 2.3 1.9-2.8-.1-2.9-1.1-6.9-2-9-2-5.3.1-17.5 3.4-18 4.9-.3 1 0 1 1.4.3 3.4-1.7 15.8-4.3 18.4-3.8 1.4.2 3.1.5 3.8.5.7.1 1 .5.7 1.1-.3.5.2 1 1.3 1 2.2 0 8.7 7.6 7.2 8.5-.7.4-.5 1.4.4 2.7.8 1.1 1.2 2.8.9 3.7-.3 1.2-.1 1.1 1.1-.3.9-1.1 1.6-1.5 1.6-.9s.3 2 .6 3c.5 1.5.4 1.5-.5.3-.5-.8-1.3-1.1-1.6-.8-.4.4 0 1.7.9 3s1.6 1.7 1.6.9c0-.8.2-1.2.5-1 .2.3.2 1.5-.2 2.8-.5 1.9-1.2 1.1-4.7-5.2-6.9-12.4-9.6-14.7-17.3-14.6-4 0-13.7 2.6-10.9 2.8.6.1.3.7-.6 1.3-1.7 1.4-6.2 20.3-8.3 35.3-.3 2.2-.8 4.9-1.2 6-.5 1.7-.4 1.7.9.5.8-.8 1.7-2.3 2.1-3.3.7-1.8 4.7-2.4 4.7-.7 0 .5.6.8 1.3.6.6-.1.9-.1.5.1-.5.3-.8 1.2-.9 2.1 0 1.2-.3 1-.9-.6-.5-1.2-1.3-2.2-1.9-2.2-1.3 0-4.3 4.9-5.3 8.9-2 7.8-2.1 8.4-1 7.7.6-.4.9-1.3.5-2.1-.3-.9.1-1.5 1.1-1.5.9 0 1.6.6 1.6 1.2-.1 1.8-2.5 4.8-3.8 4.8-2.7 0-2.3 21.4.5 24 .4.5 4 1.7 7.8 2.6 3.9 1 8.1 2.7 9.5 3.7 1.9 1.4 3.4 1.7 6.6 1.2 4-.6 11.9 1.9 10.9 3.5-.7 1.2 1 2.8 3.8 3.5 1.7.5 2.7.3 2.7-.4 0-.6-.9-1.1-1.9-1.1-1.1 0-2.2-.4-2.6-.9-.7-1.2 6.1-.3 8.8 1.1 2.7 1.4 1.5 3.3-1.9 3-2.8-.3-2.8-.3-.9 1.1 3.6 2.6 22 8.1 23.7 7.1.4-.3.2-1.3-.4-2.4-.9-1.4-.9-2.2.2-3.5 1-1.2 1-1.9.2-2.7-1.6-1.6-1.5-8.7.2-12 .8-1.4 1.9-4.2 2.5-6.1 1.9-5.6 3.8-5.4 3.7.4-.1 2.7.1 4.9.4 4.9 1.7-.1 2.8-2.1 3.3-6 1.3-10.8 1.7-11.4 6.2-11.1 1.7.2 1.7 0 .5-.8-.8-.6-2.4-.8-3.5-.5-1.6.4-1.7.3-.4-.5 1.1-.7 3.4-.2 8.2 1.7 7.5 2.9 7.2 4.3-1 3.5-2.9-.3-5.3-.3-5.3.1 0 2.2 3.6 3.9 8.8 4.1 4.9.3 5.3.2 2.5-.6-4.3-1.2-4.3-2.3-.1-1.3 1.8.4 3.9.7 4.6.7.6 0 1.2.4 1.2.9 0 .4.9.8 2.1.8 1.1 0 1.7-.5 1.4-1-.3-.6.3-1 1.5-1s1.9.3 1.7.8c-.3.4 2.5.8 6.1.8 4.9.1 6-.1 4.2-.7-2.5-.9.9-.8 39.9.7l17.5.7 11.8 11.8c10.5 10.4 11.8 12.1 10.9 13.8-1.4 2.5-1.4 4.2 0 1.8 1.5-2.5 2.1-2.2 4.9 2.3 1.4 2.2 2.8 4 3.1 4 .9 0 9.6 17.9 10.3 21.1l.6 2.6-12.8.7c-9.2.5-13.9 1.3-17.1 2.7-4.2 1.8-4.7 1.9-9.3.3-2.6-.8-5.6-1.4-6.5-1.1-2.2.5-1.1 1 5.6 2.7l4.3 1.1-2.3 2.5c-2.4 2.6-5 3.4-2.9.9 1-1.3 1.1-1.8.1-2.8-1-.9-1.1-.8-.6.4.4 1 .1 2-.4 2.4-.6.3-.9 1.1-.6 1.6.4.5-1 2.6-3.1 4.7-2 2-3.3 3-2.9 2.2.5-.8.4-1.2 0-.7-.5.4-1 1.5-1.2 2.5-.1.9-.5 3.2-.9 5-.5 2.7 0 4.1 3 8.5 2 2.8 5.9 7.6 8.6 10.6 2.8 2.9 4.7 5.7 4.4 6.2-.3.5-.2.8.3.7.4-.2 2.5 1 4.5 2.6 4 3 9 4.5 15.1 4.6 2.3 0 4.9.8 6.4 2 2.3 1.8 4.1 2 17.7 2 17.7 0 83.7-3.3 89.6-4.5 2.5-.5 4.9-1.8 5.3-3 .3-.7 3-1.8 6-2.5 3.2-.6 6.3-2 7.5-3.3 2.4-2.7 8.9-18.7 9.8-24.3.7-4.8-1.9-10.8-8.5-19.1-3.6-4.4-4.9-5.3-9.2-6.2-2.7-.6-8.4-1.1-12.4-1.1-7 0-7.5-.1-7.5-2.2 0-3.4-8.7-18.6-15.1-26.4-6.8-8.3-17.5-18.9-23.9-23.6l-4.5-3.3 18.3-.6c22.7-.8 22.4-.6 19.7-11.9-.2-1.1-3.8-7.5-4.5-8-.3-.3-2.1-2.6-3.8-5.2-1.8-2.5-3.8-5.2-4.5-6-3-3.2-7.8-9.8-7-9.8.4 0-.3-1-1.8-2.3-1.4-1.2-4.9-5.1-7.8-8.7-10.1-12.3-23.2-24.2-25.8-23.3-1.4.5-2.7-1.3-1.5-2.1 1.4-.9 9.2 4.6 15.2 10.6 13.7 13.8 26.3 28.5 25.5 29.8-.4.6-.1.9.5.8.7-.2 1.7.6 2.3 1.7.7 1.1 3 4.2 5.3 7 2.2 2.7 4.8 6.1 5.7 7.5 4.2 6.1 12.8 14.6 19.8 19.5 4.1 2.9 9.5 7.5 11.8 10.1 4 4.5 9.4 13.4 9.7 15.8 0 .6.2 2.2.3 3.6.2 1.4.5 1.9.8 1.2.8-2.1 4.3 1.6 4.3 4.5 0 1.4.9 3.2 2 4.1 1.9 1.6 2 1.9.5 3.7-1.5 1.9-1.5 1.9-.8-1 .6-2.7.5-2.9-1-1.7-.8.7-1.6 2.1-1.6 3 0 .9-.3 3.2-.7 5-.4 1.8-.2 3.8.5 4.6.6.7.8 1.6.4 1.9-1 1.1-3.3.8-3.3-.4 0-.5.5-.7 1-.4.6.3 1 .2 1-.4 0-2.1-1.8-1.9-2.7.2-1.2 2.6-.6 4 4 10 2.4 2.9 3.1 3.4 4.2 2.4 1.7-1.7 2.9-5.7 1.7-5.7-.6 0-1.2-1.5-1.4-3.3-.5-4.6 2.8-4.9 4.2-.4l1 3.2-.3-3.2c-.3-2.6-.1-3 1-2.2.7.7 1.3 3.2 1.3 6 0 2.6.9 7.1 2 9.9 2.4 6 2.5 8.8.5 11.4-.8 1.1-1.5 3-1.5 4.2 0 1.2-.6 2.5-1.2 2.7-1 .4-1 .6 0 .6.6.1 1.2.6 1.2 1.2s-.7.9-1.5.5c-1-.4-1.5.1-1.5 1.5 0 1.1.5 1.7 1 1.4.6-.4 1 .5 1 1.9 0 2.1.5 2.6 2.5 2.6 1.3 0 2.8-.8 3.4-1.7.5-1 1.1-1.6 1.3-1.3.2.3 1.1 1.9 2.1 3.7 1.8 3.3 2.4 5.9.7 3.3-.8-1.3-1-1.2-1 .2 0 1-.3 1.8-.8 1.8-.4 0-1.3.9-1.9 2-1.1 1.6-1 1.8.2 1.4.8-.4 1.5-.3 1.5 0 0 .7-11.7 6.5-13.9 6.8-.9.2-1.8.5-2.1.8-.3.3-1.3.9-2.3 1.5-2.4 1.3-2.2 3 .3 2.9 1.9-.1 2.4 1.2 2.3 5.4-.1.6.3 1.2.8 1.2s.9.7.9 1.5c0 .9.7 2.7 1.6 4 .9 1.3 1.3 2.8 1 3.3-.3.6 0 1.5.8 2.1.8.7 1.2 2 .9 3-.2.9.4 2.4 1.3 3.2 1.1.9 1.5.9 1 .1s0-1.2 1.3-1.2c2.9 0 4.1-3 4.1-10.4 0-3.6.5-6.8 1-7.1.6-.4 1 2.8 1 8.7 0 5.3.5 9.9 1.1 10.5.7.7.2 2-1.8 4.4-1.9 2.2-2.3 3.1-1.1 2.7 1.3-.5 1.5-.3 1.1.9-.5 1.2-.2 1.5.9 1 1.3-.4 1.6.3 1.6 3.5.1 4.9-2.7 7.9-10.2 10.7-2.8 1.1-5 2.4-4.9 3 .2.6-1 .9-3 .6-2.4-.4-2.7-.3-1.2.3 3 1.4-6.4 2.9-21.6 3.6l-12.6.6-1-3.5-1.1-3.5h4.4c6.2 0 22.9-1.8 28.9-3.2 2.8-.6 5.8-1.7 6.7-2.6 2.7-2.3 3.3-7.5 1.3-10.6-.9-1.4-1.4-3-1-3.6.4-.6.1-.9-.7-.8-.7.2-1.2-.5-1.2-1.4.1-1-.3-1.6-.8-1.5-.5.1-1.7-.9-2.6-2.3-1.6-2.4-1.6-2.5.3-1 1.1.9 1.6 1 1.1.2-1.9-3.2-7.9-4.4-21.6-4.3-15.4.2-13.7 1.5-14.2-11.1-.2-3.8-.8-7-1.4-7.2-.6-.2-7.8 0-16 .4-27.2 1.5-49.8 2.5-61.1 2.5-6.1 0-10.9.3-10.7.7.3.4-.4 1.1-1.3 1.7-1 .6-1.3 1.1-.7 1.1.7 0 1.2 3.2 1.3 9.1l.2 9-6.8-.1c-6.6-.1-22 1.3-27.6 2.6-1.5.3-5 2.1-7.8 4s-5.6 3.1-6.2 2.7c-.5-.3-.7-.2-.4.4.6.9-13.8 13.8-15.4 13.8-.4 0-1.1.4-1.6.9s-.3.6.5.2c.8-.5 1.2.1 1.2 1.8 0 3.1 2.9 6.3 6.6 7.2 3.1.8 46-.2 51.7-1.2l3.7-.7v3.7c0 3.4-.2 3.6-3.2 3.5-3.1-.1-3.2-.1-.8-.9 2.3-.7 2.4-.8.3-.9-1.2-.1-2.7.7-3.2 1.6-.6 1-1.1 1.2-1.1.5 0-.6-.8-1.2-1.7-1.2-1.6 0-1.6.2-.3 1 1.1.8.5 1-2.5 1-2.2-.1-6 .3-8.5.8-7 1.5-19.3 2.5-18.7 1.6.3-.5-2.2-.7-5.6-.6-5.8.4-6 .3-4.7-1.4 1.4-1.6 1.3-1.7-.3-1.1-1 .4-2.1.7-2.3.7-.3 0-.2.5.1 1 .3.6-.4 1-1.5 1-1.4 0-2-.5-1.7-1.2.3-1-1.4-1.4-6.2-1.6-8.6-.3-37.8-3.9-46.1-5.7-15.3-3.2-20.8-4.5-26-6.4-3-1.1-4.7-2-3.7-2 .9-.1 1.7-.8 1.7-1.7 0-1.4.8-1.6 5-1.2 2.7.3 5.3.1 5.8-.4.4-.4 2.3-.3 4.1.3 2.4.9 3.9.9 5.7 0 1.4-.6 3.9-1.2 5.7-1.2 3-.1 3-.2-.8-.9-15.3-3-25.1-5.3-32.5-7.7-8.1-2.7-8.6-3-10.6-7.1-1.1-2.3-2.3-3.9-2.8-3.5-.4.4-.4 0-.1-.8.3-.9 0-2.9-.6-4.5-1.5-3.7-1.7-4.1-2.5-8.8-.6-3-.4-3.8.7-3.4 1.2.4 2.9 5 5.8 16.4 1.6 6.1 3.7 7.7 14.1 10.8 5.2 1.5 10.1 3 10.9 3.2 1 .3.8-.4-.5-2.3-3.3-4.9-6.4-11.6-6.4-13.6 0-1.1 1.5.9 3.2 4.4l3.3 6.4 13.5 1.7c16.2 2 28.5 2.2 33.1.6 3.8-1.3 7-4 18.7-15.4l8.2-8 19.3.2 19.2.2-18.2-.7c-10-.3-18.5-1-18.9-1.4-.4-.4.4-.7 1.7-.8 3.3-.1 4.9-.4 8.8-2.1 3.5-1.4 3.4-1.4-7.7-2.8-6.5-.8-10.7-1.7-10-2.1.7-.5-.4-.6-2.5-.2-2.1.3-7 .1-11-.5-10.6-1.7-26.8-3.5-30.2-3.4-1.6 0-3.4-.3-4-.8-.7-.6-3.5-.6-7 0-5.8.9-9 .5-4.7-.7 2.2-.5 2.7-2.6.7-2.3-3.5.4-5.5 1.4-5.5 2.9-.1 1.4-.2 1.4-1.5-.2-.7-1.1-1.1-2.5-.8-3.3.3-.8-.1-1.4-1-1.4s-2.6-1.5-3.8-3.3c-1.2-1.7-3-3.9-4-4.7-2.1-1.8-6.2-16.8-5.6-20.7.4-2.6.4-2.5.6.5 0 1.8.8 4 1.6 4.8 1.7 1.7 1.7 1.6 1.5-4.9-.1-2.8.3-4.7.9-4.7 2.3 0 1-2.9-1.9-4.2-3.9-1.7-3.8-2.4.8-3.3 3.1-.6 3.4-.9 1.7-1.5-1.1-.4-3.1-2.1-4.5-3.6l-2.5-2.9 3 2.6c3.4 3 14.4 6.4 29 8.9 3.3.6 12 2.3 19.4 3.7 14.5 2.7 19.1 2.6 22.7-.8 1.2-1.1 2.7-1.8 3.4-1.4.6.3 1 .3.8-.2-.2-.7 2.7-4.2 10.7-12.8 3.6-3.9 4.3-7.5 1.8-9.7-1.9-1.7-15.8-8.9-20.6-10.7-1.7-.7-2.5-1.5-2.1-2.3.4-.6.3-.8-.3-.5-1.4.8-21.4-8.3-20.7-9.4.3-.5-.3-.6-1.2-.2-1 .3-1.5.2-1.2-.3.4-.5-.4-1-1.5-1.1-1.2 0-9.8-3.8-19.2-8.4-9.3-4.5-17.2-8.3-17.5-8.4-3.3-.8-4.9-1.8-4.4-2.7.4-.6.1-.9-.7-.6-1 .3-1.4 2.7-1.6 8.3-.1 5.2-.6 8.3-1.5 9-3.1 2.4-4.1 6.3-3.5 13.7.3 4 .3 6.6-.1 5.8-.7-1.5-2.3-1.7-7.2-.8-1.4.3-1.9.3-1.1.1.9-.4.4-1.4-1.8-3.4-3.3-2.9-4.7-3.7-3.6-1.9.9 1.4-.5 1.3-5.5-.5-3.8-1.3-4.5-1.4-6 0-2.4 2.2-9 .2-9.1-2.8-.1-1.7-.2-1.8-.6-.5-.2 1-1 1.8-1.6 1.7-.7 0-9.7-2.8-20.2-6.3-12.8-4.3-19.2-6-19.7-5.2-.5.7-1.7.1-3.5-1.6-1.5-1.4-4.3-2.9-6.2-3.3-1.9-.4-11-3.4-20.2-6.6-9.2-3.3-17.4-5.9-18.3-5.9-.9 0-1.6-.5-1.6-1.1 0-.5-.4-.7-1-.4-.6.4-1-.7-1-2.5s-.4-2.9-1-2.5c-.6.4-1-.9-1-3.2 0-4.6 2.4-24.5 3.9-32.2.6-2.9 1.1-5.8 1.1-6.2 0-.5-2.6-.9-5.8-.9-3.2 0-6.2-.4-6.7-.9-.6-.5-2.9-1.2-5.2-1.6l-4.3-.7v81.5c0 64.3.3 81.6 1.3 82 1 .4 1 .6 0 .6C.3 286 0 303.5 0 370v84h454v-70.9c0-41.6-.4-71.2-.9-71.5-.5-.4-2.1-.7-3.5-.8-3.8-.3-3.2-2.6.9-3.4l3.5-.6V0h-2.7c-1.6 0-3.7 1-4.9 2.3zM191.3 75.7c-.7.2-1.9.2-2.5 0-.7-.3-.2-.5 1.2-.5s1.9.2 1.3.5zm-60.5 1.2c1.1.7 1 1-.3 1.5-2 .7-3.8-.1-3-1.5.7-1.1 1.6-1.1 3.3 0zm14.7.1c.3.6-.4 1-1.7 1-1.8 0-2-.2-.8-1 1.9-1.2 1.8-1.2 2.5 0zm63.8-.3c-.7.2-1.9.2-2.5 0-.7-.3-.2-.5 1.2-.5s1.9.2 1.3.5zm15.2.3c-.3.5-3.6.9-7.3.8l-6.7-.2 7-.6c3.9-.4 7.1-.7 7.3-.8.2-.1 0 .2-.3.8zm-86.6.9c1.1.7.5 1.1-2.3 1.6-2 .4-4 .5-4.3.1-.4-.3.6-.6 2.1-.6 1.6 0 2.5-.4 2.1-1-.8-1.2.5-1.3 2.4-.1zm-37.2 9.7c-.3.3-1.2.4-1.9.1-.8-.3-.5-.6.6-.6 1.1-.1 1.7.2 1.3.5zm20.3 4.2c0 .7.4 1 1 .7.6-.3.7.1.4 1-.4.9-.7 1.5-.8 1.3-.2-.2-1.3-1.8-2.6-3.6-2.2-3.3-2.2-3.3-.1-2.1 1.1.8 2.1 2 2.1 2.7zm4.9-.8c1.1 2.4 1.1 2.4-.3.6-.9-1.1-1.6-2.4-1.6-3 0-1.2.5-.7 1.9 2.4zm0 4.3c0 .8-.2.8-.6-.1-.4-1-.9-.9-2 .5-1.3 1.7-1.3 1.6-.3-.5 1.1-2.2 3.1-2.2 2.9.1zm-13.4.7c.3.5.1 1-.4 1-.6 0-1.1-.5-1.1-1 0-.6.2-1 .4-1 .3 0 .8.4 1.1 1zm13.5 3c.8 1.5.8 2.5 0 3.8-.9 1.4-1 1.3-.4-.7.4-1.6.3-2.1-.5-1.7-.7.5-.8.1-.4-1 .5-1.3.3-1.5-.7-.9-.9.5-1.1.4-.6-.3 1-1.6 1.4-1.5 2.6.8zm4 1.2c0 .5-.5.8-1.1.8-.5 0-.7-.5-.4-1 .3-.6.1-1-.5-1s-.8-.5-.4-1.1c.6-1.1 2.3.6 2.4 2.3zm2 4.9c0 .6-.4.7-1 .4-.5-.3-1-1.1-1-1.6 0-.6.5-.7 1-.4.6.3 1 1.1 1 1.6zm-6.8 5.8c-.4 1-.1 1.2.7.6 1-.6 1.1-.3.2 1.3-1.4 2.6-.4 5.5 1.6 4.7 1.1-.4 1.3-.1.9 1.1-.3.8-.6 2.3-.7 3.2 0 .9-.9-.2-1.9-2.6-1.1-2.3-1.6-5-1.3-5.9.4-1 .2-1.4-.4-1-1.1.7-2.8-2.2-1.8-3.1.3-.3.5 0 .5.7s.4 1 .9.7c.5-.3.7-1.6.5-2.9-.4-2-.4-2 .4-.2.5 1.1.7 2.6.4 3.4zm6.7 1.6c0 .5-.4.2-1-.9-.9-1.5-1.3-1.6-2.1-.5s-.8 1-.4-.4c.3-1 .6-2.4.6-3 .1-1.4 2.9 3.3 2.9 4.8zm2.1-2c0 .5-.5.3-1-.5s-1-2-1-2.5c0-.6.5-.3 1 .5s1 1.9 1 2.5zm-23.4-1.3c.4.6.3.8-.3.5-1.2-.7-1 8 .2 9.1.5.4.5-.1.2-1-.4-1-.3-2.8.2-3.9.5-1.6.8-.7.9 3.1 0 2.9-.4 6.2-.9 7.3-.8 1.4-.8 2.2.1 3.1.8.8 1 .7.5-.7-.4-1-.2-1.7.4-1.7.6 0 1.2.6 1.2 1.2.1.7.3 2.2.4 3.4.1 1.2 1 3.6 2 5.5.9 1.9 2.1 4.7 2.5 6.4.7 3 .7 3 1.5-1.3 1-5.6 1.8-4.7 1 1-.9 6.2-1.3 6.6-7.2 7.4l-5.1.6-.7-8.8c-.8-11-1.3-13.2-2.7-11.3-.7 1-.8.9-.3-.6 1.1-3.1 1.3-4.7 1.4-8.3.1-1.8.4-3.1.9-2.9.4.3.7-.9.8-2.7 0-3.3 1-6.6 1.8-6.6.3 0 .8.5 1.2 1.2zm-5.9 7c-.3.7-.5.2-.5-1.2s.2-1.9.5-1.3c.2.7.2 1.9 0 2.5zm25.8-2.2c.3.5.1 1-.4 1-.6 0-1.1-.5-1.1-1 0-.6.2-1 .4-1 .3 0 .8.4 1.1 1zm1.2 2.6c-.3.4-.2 1.6.4 2.8 1 2 .9 2-.5.2-1.4-1.7-1.3-3.6.1-3.6.4 0 .3.3 0 .6zm-28 5.6c-.3.8-.6.5-.6-.6-.1-1.1.2-1.7.5-1.3.3.3.4 1.2.1 1.9zm27.3 1.3c0 .5-.5.3-1-.5s-1-2-1-2.5c0-.6.5-.3 1 .5s1 1.9 1 2.5zm3.1 4.6l-1 7.4.4-7.5c.4-8.8.4-8.5 1-7.8.3.2.1 3.8-.4 7.9zM130 126c.1-1.2.3-1.1 1.1.3.6 1 .9 3 .7 4.5-.4 2.7-.4 2.7-2.1-1-1.9-4.1-2.2-6.2-.7-3.8.9 1.3 1 1.3 1 0zm10.9 4.5c0 .5-.6-.1-1.4-1.5-.8-1.4-1.4-3-1.4-3.5 0-.6.6.1 1.4 1.5.8 1.4 1.4 2.9 1.4 3.5zm-45.6-3.8c-.7.2-1.9.2-2.5 0-.7-.3-.2-.5 1.2-.5s1.9.2 1.3.5zm5.2.3c.3.5.1 1-.4 1-.6 0-1.1-.5-1.1-1 0-.6.2-1 .4-1 .3 0 .8.4 1.1 1zm36.5-.1c0 .6-.4 1.3-1 1.6-.5.3-1-.1-1-.9 0-.9.5-1.6 1-1.6.6 0 1 .4 1 .9zm-34 1.6c0 1-.9 1.5-2.7 1.4-2.4-.2-2.5-.2-.5-.6 1.2-.2 2.2-.9 2.2-1.4 0-.5.2-.9.5-.9s.5.7.5 1.5zm-6.4 1c-.3 1 .1 1.5 1.1 1.5.9 0 1.4.2 1.2.5-.3.2-2.5.1-5-.4-3.9-.8-4.1-.9-1.1-1 1.7-.1 3.2-.6 3.2-1.1 0-.6.3-1 .6-1s.4.7 0 1.5zm-10.6.9c0 .3-.4.8-1 1.1-.5.3-1 .1-1-.4 0-.6.5-1.1 1-1.1.6 0 1 .2 1 .4zm57.3 6.4c.5.7.7 1.5.4 1.8-1 1-3.9-4.5-3.1-5.8.6-1 1-.8 1.2.7.2 1.1.9 2.6 1.5 3.3zm246.5-1c1.9 2.5 1.4 3.2-2 2.7-1.8-.3-2.7-.3-2 .1.6.3.9 1.1.5 1.7-.4.7-.8 2.8-.8 4.7 0 2.2-.5 3.4-1.3 3.2-.6-.1-1.2.2-1.2.8 0 .5.4 1 .9 1s1.1.9 1.4 2c.3 1.1.2 2-.2 2-1.1 0-2.9-3.9-3.7-8-.3-1.9-.9-3.9-1.1-4.4-.3-.4-.6-2.6-.7-4.8l-.2-4 4.5.7c2.5.3 5.2 1.4 5.9 2.3zm-255.7 5.3c-.5 1.3-1 1.7-1.1.9 0-.8-.3-2.6-.6-4-.6-2.3-.5-2.4 1-.9 1.3 1.2 1.4 2.1.7 4zm11 3.2c-.8.8-1.6.7-2.8-.6-.9-.9-1.3-2-.9-2.4.4-.4 1.4.1 2.3 1.2 1.5 1.9 1.5 1.9.9-.5-.6-2.2-.6-2.3.5-.7.8 1.4.8 2.2 0 3zm-8.1-2.9c0 .3-.4.8-1 1.1-.5.3-1 .1-1-.4 0-.6.5-1.1 1-1.1.6 0 1 .2 1 .4zm3 3c0 .3-.4.8-1 1.1-.5.3-1 .1-1-.4 0-.6.5-1.1 1-1.1.6 0 1 .2 1 .4zm8 1.6c0 .5-.4 1-1 1-.5 0-1-.5-1-1 0-.6.5-1 1-1 .6 0 1 .4 1 1zm-1.4 2.7c-.7.7-2.6-.7-2.6-1.9 0-.6.6-.6 1.5.2.9.7 1.3 1.5 1.1 1.7zm3.4-.7c0 .5-.4 1-1 1-.5 0-1-.5-1-1 0-.6.5-1 1-1 .6 0 1 .4 1 1zm-8 4.2c0 .5-.4.8-1 .8-.5 0-1-1-1-2.3 0-1.8.2-1.9 1-.7.5.8 1 1.8 1 2.2zm-37.7-1.5c-.7.2-2.1.2-3 0-1-.3-.4-.5 1.2-.5 1.7 0 2.4.2 1.8.5zm52.5 2.8c-.2.5-1.2.9-2.3.8-1.7-.2-1.6 0 .5 1.2l2.5 1.4-2.7-.1c-1.5-.1-2.4-.6-2.2-1 .3-.4 0-.8-.7-.8s-.4-.7.7-1.5c2.1-1.6 4.7-1.6 4.2 0zm-7.1 2.7c-.3.8-.6.5-.6-.6-.1-1.1.2-1.7.5-1.3.3.3.4 1.2.1 1.9zm-11.6 1.1c-1 .9-1.1.8-.5-.6.3-1 .9-1.5 1.2-1.2.3.3 0 1.1-.7 1.8zm38.5 3.9c-.9.5-2.4.7-3.4.5-1.2-.3-1-.5.6-.6 1.3 0 2-.5 1.7-1.1-.4-.6.1-.7 1.1-.3 1.5.5 1.5.7 0 1.5zm9.9 1.3c2.2.8 3.3 1.4 2.4 1.5-.9 0-3.2-.7-5-1.5-4.4-1.8-2.6-1.9 2.6 0zm-46.8 2.7c-.3.8-.6.5-.6-.6-.1-1.1.2-1.7.5-1.3.3.3.4 1.2.1 1.9zm159.7 2c-.6 1-.5 1 .8.1 1.2-1.1 1.8-1 3.2.5.9 1 1.3 2.2.9 2.6-.4.4-.1.5.7.2 2.7-1 20 17 28.3 29.5 4.9 7.5 9.7 17.2 9.7 19.9 0 .6-1.3 1-3 1-2.2 0-3-.5-3-1.8 0-2.1-5.2-13.3-8.1-17.3-1.1-1.6-1.7-3.4-1.3-4 .4-.8.3-.9-.4-.5-.6.3-1.6-.3-2.3-1.6-.6-1.2-3.2-4.4-5.8-7.2-2.5-2.7-4-4.6-3.2-4.1.8.5-2-2.5-6.3-6.5-5-4.8-7.5-7.9-7.1-8.8.4-1.2.2-1.2-.8-.3-1.1.8-1.8.6-3.2-.9-1.7-1.9-1.7-2-.1-2 1.1 0 1.5.4 1 1.2zm-187.6 4c-.7 2-4.8 2.3-4.8.4 0-1.1.9-1.6 2.6-1.6 1.6 0 2.4.5 2.2 1.2zm32.2 16.2c0 .3-.4.8-1 1.1-.5.3-1 .1-1-.4 0-.6.5-1.1 1-1.1.6 0 1 .2 1 .4zm17 7.6c-2.8 1.7.1 2.3 10.3 2.1 7.9-.2 11.6.2 16.6 1.8 3.6 1.1 6.9 1.7 7.4 1.4.6-.4.7-.1.2.7-.6 1-.4 1.2.8.7 1-.3 1.7-.2 1.7.3s.7.6 1.7.3c1.1-.4 1.4-.3.9.5-.5.8-.2 1 .8.6s1.6-.1 1.6.7c0 .7.3.9.7.6.3-.4 1.5.1 2.6 1 1.5 1.3 1.8 1.4 1.2.3-.6-1.1-.3-1 1.2.2 1.1 1 2.5 1.8 3.3 1.8.7 0 7.2 2.9 14.5 6.4 17.3 8.3 17.3 8.3 6.1 19.3-4.7 4.7-9.5 8.5-11.2 8.9-4.9 1.2-36.8-4.2-42.9-7.3-1.6-.9-3.8-2.7-5-4.2-1.1-1.4-3.5-4-5.2-5.8-1.8-1.7-4.5-5.5-5.9-8.5-1.4-2.9-4-6.5-5.7-7.9-4-3.4-3.2-6.1 1.5-5.2 1.8.3 3.8.9 4.3 1.4.6.4 2-.3 3.2-1.7l2.2-2.4-3.6-1.5c-1.9-.8-4.2-1.5-4.9-1.5-1.6 0-1.6-.2-.8-2.4.3-.9 1.4-1.6 2.3-1.6 1.4 0 1.4.2.1 1zm6.7.6c-.3.3-1.2.4-1.9.1-.8-.3-.5-.6.6-.6 1.1-.1 1.7.2 1.3.5zm9.6.1c-.7.2-1.9.2-2.5 0-.7-.3-.2-.5 1.2-.5s1.9.2 1.3.5zM25.6 207.6c.8 2 1.7 5.9 2 8.8l.5 5.1-2.5-4.7c-1.4-2.6-3.6-5.4-4.8-6.2-1.9-1.3-2-1.9-1-4.1 1.6-3.6 4-3.1 5.8 1.1zm108.1 0c-.3.3-1.2.4-1.9.1-.8-.3-.5-.6.6-.6 1.1-.1 1.7.2 1.3.5zm17.8 1.4c.4.6 1.1.8 1.6.5.5-.4.9-.2.9.3 0 1.5-2.6 2.2-3.9.9-.6-.6-1.1-1.5-1.1-1.9 0-1.1 1.8-1 2.5.2zm-3.5 5c.8.5 1.1 1 .5 1-.5 0-1.7-.5-2.5-1s-1-1-.5-1c.6 0 1.7.5 2.5 1zm278 1.5c-.7.8-1.9 1.5-2.7 1.5-1 0-.8-.6.8-1.9 2.7-2.2 3.8-1.9 1.9.4zm-296.7 8.7c6.9 4.2 7.2 4.5 10.5 12.3 1.9 4.4 4.1 9.3 5 10.9 1.5 3 3.5 23.5 2.3 24.8-1.4 1.6-4.6-3.8-6.7-11.2-1-3.7-4.6-11.3-6.1-12.8-.7-.7-1.3-2.1-1.3-3.1 0-2.1-1.9-4.1-4-4.1-.9 0-2.4-1.5-3.3-3.3-1.1-2-1.6-2.5-1.4-1.2.1 1.2-.3 1.9-1 1.7-1.5-.2-5.3 3.3-5.3 4.8 0 1.3-1 1.3-4.9-.1-1.7-.6-3.1-1.7-3.1-2.5s-.6-1.1-1.5-.8c-.8.4-1.5.1-1.5-.6 0-.6-.4-.8-1-.5-.5.3-1-.1-1-.9 0-.9-.6-1.5-1.2-1.4-1.9.4-1.6-1.1 1.7-7.9 5.1-10.5 11.6-11.6 23.8-4.1zm292.7.5c-1.1 1.7-1.1 1.7-.6-.1.5-1.3.2-1.7-.9-1.3-.8.4-1.7.1-2.1-.5-.4-.6-.3-.8.4-.4.6.3 1.4.1 1.7-.5.5-.7 1.1-.7 1.7-.1.7.7.6 1.6-.2 2.9zm-401.2 3c2.2 3.3 6.2 12.9 6.2 15 0 .8-.4 1.1-1 .8-.5-.3-1-1.3-1-2.2 0-.9-.8-2.2-1.7-3-1-.8-1.3-1.2-.6-.9.6.4 0-1.4-1.3-3.9-1.5-2.5-3-4.2-3.6-3.9-.7.4-.8.2-.4-.4.4-.7.3-1.2-.3-1.2-.5 0-1.5.8-2 1.7-.6 1-1.1 1.4-1.1 1 0-1.2 3.1-5.7 4-5.7.5 0 1.7 1.2 2.8 2.7zm134.8 6.8c.9.8 1.1 1.5.6 1.5-.5 0-1.5-.7-2.2-1.5-.7-.8-.9-1.5-.6-1.5.4 0 1.4.7 2.2 1.5zm190.2 3.2c-1 .2-2.6.2-3.5 0-1-.3-.2-.5 1.7-.5s2.7.2 1.8.5zm-5.7 3.5c-1.1 1.3-1.7 1.5-2 .6-.2-.7-.8-1.6-1.3-1.9-.5-.3.4-.6 2-.6 2.7 0 2.8.1 1.3 1.9zm-14.5 1.5c-1 1-1.9-.5-1-1.8.6-1.1.8-1.1 1.2 0 .2.7.1 1.5-.2 1.8zm10.4-1.3c0 .3-.4.8-1 1.1-.5.3-1 .1-1-.4 0-.6.5-1.1 1-1.1.6 0 1 .2 1 .4zm10.3.3c-.7.2-1.9.2-2.5 0-.7-.3-.2-.5 1.2-.5s1.9.2 1.3.5zm-193.1 3.2c-.6.3-1.2 2.4-1.5 4.6-.3 3.6-.4 3.5-.5-1.2-.2-4.4.1-5.1 1.4-4.6.9.3 1.1.8.6 1.2zm-125.5 2.3c-.3.8-.6.5-.6-.6-.1-1.1.2-1.7.5-1.3.3.3.4 1.2.1 1.9zm10.9.7c.5.4 4.3 2.6 8.4 4.7 4.1 2.1 9.8 5.2 12.5 7 2.8 1.7 9.5 5.5 15 8.4 5.5 2.9 10.5 5.7 11.2 6.2.7.5 1.7.7 2.3.3.5-.3 1-.1 1 .4 0 .6-.4 1.1-.9 1.1-.8 0 .7 7 2.4 11.2.4 1 .3 1.8-.3 1.8s-1.4-1.5-1.8-3.2c-1.4-6.6-2.3-7.4-21.9-17.8-4.4-2.4-9.1-5.1-10.5-6-1.4-.9-6-3.6-10.2-5.9-7.9-4.3-10.8-6.5-10.8-8.2 0-1.1 2.3-1.2 3.6 0zm80.5 3.4c4.7 4.7 11.5 17 12.6 22.7.3 1.9 1.2 4.4 1.8 5.5.7 1.1 1.6 3.7 1.9 5.7.4 2.1 1.2 3.8 1.9 3.8s.4.5-.7 1.1c-1.9 1.2-3.6-.1-3.6-2.9 0-2.2-6.2-18.3-8.3-21.7-4.6-7.3-5.5-8.4-6.2-7.7-.5.4-.5.2-.1-.5 1-1.8-4.5-6.3-8.6-6.9-4.2-.7-5-2-1.5-2.7 5.3-1 6.6-.6 10.8 3.6zM438 248c0 .5-.2 1-.4 1-.3 0-.8-.5-1.1-1-.3-.6-.1-1 .4-1 .6 0 1.1.4 1.1 1zm-1.7 4c.3 1.1.1 1.8-.4 1.4-.5-.3-.9-1.2-.9-2 0-2 .7-1.7 1.3.6zm-283.6 5.2c-.3.8-.6.5-.6-.6-.1-1.1.2-1.7.5-1.3.3.3.4 1.2.1 1.9zm-33 3.3c0 .8-.4 1.2-.9.9-.5-.3-.6-1-.3-1.5.9-1.3 1.2-1.1 1.2.6zM151 268c0 .5-.5 1-1.1 1-.5 0-.7-.5-.4-1 .3-.6.8-1 1.1-1 .2 0 .4.4.4 1zm-54.5 6.2c-.3 1.3-1.5 2.9-2.6 3.6-2.5 1.6-2.5-.2.1-2.8 1.1-1.1 2-2.5 2-3.2 0-.6.2-.9.5-.6.4.3.3 1.6 0 3zm53.2 2.6l2 2.7h-3.8c-2.2 0-3.9-.3-3.9-.7 0-.5.4-.8.9-.8s1.1-.9 1.4-2c.7-2.6.9-2.5 3.4.8zm.7 4.8c.9.3 1.6 1.2 1.6 1.9 0 1-.5 1.1-2.5.2-3.8-1.8-3.1-3.6.9-2.1zm21.2 4c-1.1.8-2.5 1.4-3 1.3-.6 0-.1-.5 1.2-1.1 1.2-.6 2.2-1.6 2.2-2.1 0-.6.3-.7.7-.3.5.4-.1 1.4-1.1 2.2zm-4.6-.2c0 1.1-1.9 1.5-2.5.6-.3-.5.1-1 .9-1 .9 0 1.6.2 1.6.4zm-107.9 8.3c6.8 3.7 12.9 7.2 13.4 7.9 1.4 1.6 15.8 9.9 16.8 9.6.4-.1.7.5.7 1.3 0 1.1-1.8.4-6.2-2.3-6.2-3.8-12.5-7.4-20.3-11.7-7.9-4.2-20.5-11.8-20.5-12.2 0-.9 4.1 1 16.1 7.4zm306.2-7c-.7.2-1.9.2-2.5 0-.7-.3-.2-.5 1.2-.5s1.9.2 1.3.5zm-17.5 1c-1 .2-2.8.2-4 0-1.3-.2-.5-.4 1.7-.4 2.2-.1 3.2.1 2.3.4zm-21.5 1c-1.3.2-3.3.2-4.5 0-1.3-.2-.3-.4 2.2-.4s3.5.2 2.3.4zm-15.5 1c-1 .2-2.8.2-4 0-1.3-.2-.5-.4 1.7-.4 2.2-.1 3.2.1 2.3.4zm74.2 5.5c0 10.6-.2 10.8-7.7 10.8-5.7 0-6.4-.2-5.3-1.5.7-.8 1-2.5.6-3.9-.4-1.8-.1-2.6 1.1-3 1-.3.6-.4-.9-.2-1.7.2-3.4-.4-4.4-1.5-1.6-1.8-1.6-1.9-.1-1.9 1 0 1.7.5 1.7 1.1 0 .6.7.4 1.5-.5 2.5-2.5 1.7-3.6-2.5-3.6-2.2 0-4 .5-4 1.1 0 .5-.4.7-1 .4-2.4-1.5-.6-2.5 4.3-2.5h5.2l1.8 4.9c.9 2.7 1.7 5.7 1.7 6.6 0 1.5-.2 1.6-1.7.4-1.5-1.3-1.5-1.2-.2.8 1.6 2.6 3.9 3.1 3.9.8 0-.8.6-1.5 1.3-1.5.9 0 .9-.2-.1-.8-1.4-1 .1-6.5 2.6-9.5 1.4-1.5 1.3-1.7-.7-1.7-1.2 0-2.4.7-2.8 1.6-.5 1.2-.7 1.3-1.4.3-1-1.7.8-2.9 4.4-2.9 2.7 0 2.7.1 2.7 6.2zM167.5 291c-.3.5-1.1 1-1.6 1-.6 0-.7-.5-.4-1 .3-.6 1.1-1 1.6-1 .6 0 .7.4.4 1zm179.8 3.2c-1 1.8-2.3 4.6-3 6.3-1.1 2.9-1.2 2.9-1.2.5-.1-1.9-.4-2.2-1-1.1-.6 1-.9 0-.8-3 .2-3.8.5-4.4 2.4-4.4 1.2 0 2.5-.4 2.9-.8 1.9-1.8 2.3-.4.7 2.5zm7.1-1.7c-.4.8.1 1.7.9 2.1 1.1.4 1.5 2.1 1.5 6.5 0 5.5-.2 6-1.9 5.6-1.1-.3-1.9-.2-1.9.2s-2.7.8-6 .9c-3.3.1-6-.3-6-.8s.9-.7 2-.5c2.7.5 2.5-.3-.2-1.5-2-.8-1.8-.9 1.5-.9 2.3-.1 3.6.3 3.5 1.1-.2.6.5 1.4 1.5 1.6 1 .2 1.7-.2 1.7-1.1 0-.9.5-1.7 1.2-1.9 1.6-.6 1.9-3.8.3-3.8-1 0-1.3-1.3-1.2-4.5.2-3.5.6-4.5 1.9-4.5 1.1 0 1.5.5 1.2 1.5zm-19.1.7c.4 1 .8.9 1.6-.2 1.7-2.5 1.2-.5-1.2 4.9-1.8 3.8-2.7 4.7-3.5 3.9-1.5-1.5-1.6-5.5-.2-6.3.6-.4.8.7.4 2.7l-.6 3.3 1.9-3c1.4-2.1 1.6-3.3.9-4-1.5-1.4-5.7-1.6-7.2-.4-.8.7-1.5.6-2-.2-.4-.7-.3-.9.4-.5.6.3 1.3.2 1.7-.4.9-1.4 7.2-1.2 7.8.2zm-286.4 2.4c.2.2-.7.4-2.2.4-1.4 0-2.9-.5-3.2-1-.6-1 4.2-.4 5.4.6zm315.1.9c.3 1.1 1.8 2.6 3.3 3.3 3.5 1.7 3.5 3.4 0 3-3.5-.4-4.6 2.8-1.1 3.5 1.3.2.3.5-2.2.6l-4.5.1.3-6.4c.3-5.2.7-6.3 2-6.2.9 0 1.9 1 2.2 2.1zm-50.8 2.1c-.8 1.4-.9 1.3-.9-1 0-1.8.3-2.4.9-1.8.7.7.7 1.6 0 2.8zm5.8-2.6c0 .5-.4 1-1 1-.5 0-1-.5-1-1 0-.6.5-1 1-1 .6 0 1 .4 1 1zm7 1.1c0 .6-.4.7-1 .4-.5-.3-1-1.1-1-1.6 0-.6.5-.7 1-.4.6.3 1 1.1 1 1.6zm-136.8 2.3c.6 1.1.8 1.8.4 1.4-.4-.3-2.1-.2-3.7.2-1.7.5-2.9.5-2.9-.1 0-.5.7-.9 1.6-.9 1.1 0 1.5-.6 1.1-1.9-.6-2.6 2-1.6 3.5 1.3zm135 3.2c-.3 1.9 0 2.4 1.6 2.4 1.1 0 2.2.8 2.4 1.8.4 1.5-.2 1.9-2.8 2-1.9.2-3.4-.2-3.4-.8 0-.6.5-.8 1.1-.4.8.4.8 0 0-1.5-.8-1.3-.8-2.7-.3-3.9.5-.9.7-2.4.5-3.2-.4-1.2-.2-1.2.5-.2.5.7.7 2.4.4 3.8zM56.5 300c.3.5.2 1-.4 1-.5 0-1.3-.5-1.6-1-.3-.6-.2-1 .4-1 .5 0 1.3.4 1.6 1zm122.5.4c0 .3-.4.8-1 1.1-.5.3-1 .1-1-.4 0-.6.5-1.1 1-1.1.6 0 1 .2 1 .4zm133.4 4.9c.1 2.2.6 3.3 1.9 3.5 1 .2 1.7-.3 1.7-1.2 0-.9.7-1.6 1.5-1.6s1.5.6 1.5 1.4c0 .8.6 1.7 1.3 1.9.6.3-1.2.6-4 .6l-5.3.1v-4.7c0-5.1 1.3-5.2 1.4 0zm-245.1-.5c2.9 1.6 9.4 5.1 14.5 7.7 7.5 4 9.2 5.3 9.2 7.1 0 1.3-.4 2.5-.8 2.8-.8.5-15.9-8.6-21.9-13.2-1.8-1.3-3-2.9-2.7-3.4.4-.6.1-.8-.7-.6-1.8.7-5.1-1-4.4-2.3.9-1.3 1-1.2 6.8 1.9zm130.4-.1c-.7.6-6.7-.9-6.7-1.7 0-.5 1.6-.3 3.5.3s3.3 1.2 3.2 1.4zm135.1.7c-.7.8-1.5 1.2-1.7 1.1-.5-.6 1-2.5 2-2.5.5 0 .4.6-.3 1.4zm4.9 2c-.3.7-2.2 1.3-4.4 1.3-2.1.1-3.1-.1-2.3-.4.8-.3 1.7-.9 2-1.3.3-.4 1.4-1.2 2.5-1.8 2.1-1.1 3.1-.2 2.2 2.2zm-28 1.3c-.3 1-.5.4-.5-1.2 0-1.7.2-2.4.5-1.8.2.7.2 2.1 0 3zM152 330c0 .5-.2 1-.4 1-.3 0-.8-.5-1.1-1-.3-.6-.1-1 .4-1 .6 0 1.1.4 1.1 1zm194.8 10.7c.3 3.1.1 3.3-2.7 3.3-1.8 0-3.1-.5-3.1-1.3 0-.6-.3-2.2-.6-3.5-.6-2.2-.4-2.3 2.7-2 3 .3 3.4.7 3.7 3.5zm-178.5 6.8c.6 1.5-1 3.2-2 2.1-.4-.3 0-.6.8-.6 1-.1.8-.5-.5-1.5-1.6-1.2-1.7-1.5-.4-1.5.9 0 1.8.7 2.1 1.5zm9.8 3.9c5.3.4 5.6.4 1.7-.2-7.4-1.2-6.8-2.2.8-1.5 9.4.9 11.5 3 3.1 3.2-9.1.2-13.7-.7-13.7-2.7 0-1.2.3-1.4.8-.5.5.7 3.7 1.5 7.3 1.7zm60.6-1.8c-.3.3-1.2.4-1.9.1-.8-.3-.5-.6.6-.6 1.1-.1 1.7.2 1.3.5z"/><path d="M115.1 142.6c0 1.1.3 1.4.6.6.3-.7.2-1.6-.1-1.9-.3-.4-.6.2-.5 1.3zM130.1 128.6c0 1.1.3 1.4.6.6.3-.7.2-1.6-.1-1.9-.3-.4-.6.2-.5 1.3zM381 139.9c0 .6.4 1.3 1 1.6.6.3.7-.1.4-.9-.7-1.8-1.4-2.1-1.4-.7zM312.5 179c1 1.1 2 2 2.3 2 .3 0-.3-.9-1.3-2s-2-2-2.3-2c-.3 0 .3.9 1.3 2zM326 192.5c0 .5.5 1.7 1 2.5s1 1 1 .5c0-.6-.5-1.7-1-2.5s-1-1.1-1-.5zM330.6 201.3c.3 1 .9 1.5 1.2 1.2.3-.3 0-1.1-.7-1.8-1-.9-1.1-.8-.5.6zM174.5 201c.3.5-.5 1-1.7 1.2-1.9.2-2.4 1-2.6 4.1-.4 5.1 2.5 13.7 4.6 13.7 1.5.1 1.5.2-.1 1.1-1.3.8-2.2.7-3.3-.2-.8-.6 0 1.1 1.8 3.9 1.8 2.9 3.8 5.2 4.5 5.2.6 0 1.3.5 1.5 1 .4 1.4 17.7 5.9 24.3 6.4 2.7.2 7.1.9 9.8 1.6 3.6.9 5.4 1 7.5.1 4-1.7 15.4-12.9 15-14.8-.2-1-5.6-4.1-14.3-8-23.2-10.6-36.4-15.6-42.2-15.9-3-.2-5.1.1-4.8.6zm5.8.7c-.7.2-1.9.2-2.5 0-.7-.3-.2-.5 1.2-.5s1.9.2 1.3.5zm.2 5.2c1.7.7 1.7.8-.8 1.5-1.5.3-2.7 1.1-2.7 1.7 0 .6.5.7 1 .4.6-.3 1 .3 1 1.4 0 1.1-.5 2.3-1.1 2.7-.6.3-.9 1.5-.6 2.5.3 1.1.1 1.9-.3 1.9-1.7 0-4-4.5-4-7.5 0-4.9 2.6-6.5 7.5-4.6zm24.1 8.1c-2.8.7-3 2.9-.7 8.8 1.7 4.8 1.8 5 .1 4.9-1.1-.1-1.6-.6-1.2-1.6.3-.8.1-1.2-.4-.8-1.9 1.1-1.9-10.4 0-11.8.7-.6 1.1-1.7.8-2.5-.3-1 .2-.8 1.5.5 2 2 2 2-.1 2.5zm-18.3 6.7c-.7.2-2.1.2-3 0-1-.3-.4-.5 1.2-.5 1.7 0 2.4.2 1.8.5zm23.7 1.4c0 .5-.9.9-2 .9s-2-.4-2-.8.9-.8 2-.9c1.1-.1 2 .2 2 .8zM342.7 294.8c.1.8.3 1.6.3 1.8 0 .2.4.4.8.4s.9-1 .9-2.2c.2-1.6 0-1.9-.6-.9-.5.7-1.1.9-1.3.5-.3-.5-.3-.3-.1.4zM61 303.4c0 .2.7.7 1.6 1 .8.3 1.2.2.9-.4-.6-1-2.5-1.4-2.5-.6zM335 307c0 .5.5 1 1.1 1 .5 0 .7-.5.4-1-.3-.6-.8-1-1.1-1-.2 0-.4.4-.4 1zM422 33.9c0 .6.5 1.3 1 1.6.6.3 1-.1 1-.9 0-.9-.4-1.6-1-1.6-.5 0-1 .4-1 .9zM241.1 46.2c.2.2 2.2 1.9 4.4 3.8l4 3.5-3.4-3.8c-1.9-2-3.9-3.7-4.5-3.7-.5 0-.7.1-.5.2zM251 54.4c0 .2.8 1 1.8 1.7 1.5 1.3 1.6 1.2.3-.4s-2.1-2.1-2.1-1.3zM251.8 77.7c.6.2 1.8.2 2.5 0 .6-.3.1-.5-1.3-.5-1.4 0-1.9.2-1.2.5zM280.8 80.7c.7.3 1.6.2 1.9-.1.4-.3-.2-.6-1.3-.5-1.1 0-1.4.3-.6.6zM112.8 88.3c1.2 1.3 2.2 2.9 2.2 3.6 0 .7.5.9 1 .6 1.1-.7-2.8-6.3-4.4-6.4-.5-.1 0 .9 1.2 2.2zM68.5 94c-19.8 6.7-38.7 15.1-41.2 18.2-1.2 1.5-3.7 11.7-3.1 12.3.3.3 1-1.9 1.7-4.7 1.1-4.8 4.3-9.8 6.2-9.8.5 0 4.5-1.8 8.9-4 4.5-2.1 15.1-6.2 23.6-9.1 8.5-2.8 15.4-5.6 15.4-6 0-.5-.1-.9-.2-.8-.2.1-5.2 1.8-11.3 3.9zM116 96c.6 1.1 1.3 2 1.6 2 .2 0 0-.9-.6-2s-1.3-2-1.6-2c-.2 0 0 .9.6 2zM23.1 128.6c0 1.1.3 1.4.6.6.3-.7.2-1.6-.1-1.9-.3-.4-.6.2-.5 1.3zM167.7 159.1c.7.7 1.5 1 1.8.7.3-.3-.2-.9-1.2-1.2-1.4-.6-1.5-.5-.6.5zM156.9 169.4c-.2 2.4-.1 4.2.4 3.9.7-.4 1.1 1.3.7 3.2-.1.5.2.7.5.3.4-.4 2.5.2 4.6 1.2 2.1 1.1 4.2 2 4.6 2 .4-.1-1.3-1.2-3.9-2.6-4.7-2.4-4.8-2.5-4.8-7.4 0-6.2-1.7-6.6-2.1-.6z"/><path d="M160.1 169.9c.2 4.2.6 5.1 2.5 5.5 1.2.3 2.9.3 3.8 0 1.4-.5 1.4-.8 0-2.2-1.5-1.5-1.5-1.6.2-2.2 1.8-.7 1.7-.8-.3-1.4-1.2-.4-2.5-1.6-2.8-2.7-.4-1-1.3-1.9-2.1-1.9-1.2 0-1.4 1.1-1.3 4.9zm5.6 4.7c-.3.3-1.2.4-1.9.1-.8-.3-.5-.6.6-.6 1.1-.1 1.7.2 1.3.5zM248.6 172.2c-.8 2.5-.2 4.6 1.1 4.2 4.6-1.4 4.4-1.2 2.6-3.4-2-2.3-3.2-2.5-3.7-.8zM356.7 172.7c-1.1 1 1.3 3.3 3.4 3.3 2.2 0 2.4-1.1.7-2.8-1.3-1.3-3.1-1.6-4.1-.5zM254 177c0 .6.7 1 1.5 1s1.5-.2 1.5-.4-.7-.6-1.5-1c-.8-.3-1.5-.1-1.5.4zM69.8 179c-1.5 1.6-1.5 1.9-.1 2.4 2.5 1 3.3.7 3.3-1.3 0-2.8-1.4-3.3-3.2-1.1zM169.8 181.7c.7.3 1.6.2 1.9-.1.4-.3-.2-.6-1.3-.5-1.1 0-1.4.3-.6.6zM175.7 182.3c.4.6 0 .8-1 .4-1-.3-1.7-.2-1.7.3 0 1.3 5.7 2.3 7.4 1.3 1.2-.6.7-1.1-1.9-1.9-2.2-.7-3.2-.7-2.8-.1zM69 183.1c0 .4.8 1 1.8 1.2.9.2-.1.2-2.3 0-3.9-.5-4-.4-1.7 1.2 1.2.9 2 2 1.7 2.5-.3.5-.1 1.1.5 1.5.6.3 1.3-.1 1.6-.9.3-.9 1.5-1.6 2.5-1.6 3.3 0 2.4-3.7-1.1-4.2-1.6-.3-3-.1-3 .3zM108 183c2 1.3 4 1.3 4 0 0-.6-1.2-1-2.7-1-2.2 0-2.5.2-1.3 1zM121.8 185.7c.7.3 1.6.2 1.9-.1.4-.3-.2-.6-1.3-.5-1.1 0-1.4.3-.6.6zM180.8 186.7c.7.3 1.6.2 1.9-.1.4-.3-.2-.6-1.3-.5-1.1 0-1.4.3-.6.6zM148 190.1c0 .5.5.7 1 .4.6-.3 1-.8 1-1.1 0-.2-.4-.4-1-.4-.5 0-1 .5-1 1.1zM191.2 190.3c-.8 1-.5 1.3 1.6 1.4 1.7 0 2-.1.8-.4-1.5-.4-1.6-.7-.5-1.4.8-.5.9-.9.3-.9-.6 0-1.6.6-2.2 1.3zM210.8 198.7c.7.3 1.6.2 1.9-.1.4-.3-.2-.6-1.3-.5-1.1 0-1.4.3-.6.6zM417.6 199.3c.3 1 .9 1.5 1.2 1.2.3-.3 0-1.1-.7-1.8-1-.9-1.1-.8-.5.6zM222.8 206.7c.7.3 1.6.2 1.9-.1.4-.3-.2-.6-1.3-.5-1.1 0-1.4.3-.6.6zM411.6 223.7c-.6 1.4-.5 1.5.5.6.7-.7 1-1.5.7-1.8-.3-.3-.9.2-1.2 1.2zM241.4 237.8c.4.7.2 2.1-.5 3-1.2 1.5-1.1 1.5.6 0 1.6-1.5 1.7-2 .6-3-1.1-1.1-1.3-1-.7 0zM427.4 238.5c-1 .8-1.4 1.4-.9 1.5 1.5 0 4-1.8 3.4-2.4-.3-.3-1.4.1-2.5.9zM179.8 241.7c.7.3 1.6.2 1.9-.1.4-.3-.2-.6-1.3-.5-1.1 0-1.4.3-.6.6zM168 256c0 .5.5 1 1.1 1 .5 0 .7-.5.4-1-.3-.6-.8-1-1.1-1-.2 0-.4.4-.4 1zM191.1 262.3c-1.1 1.4-.6 2.7 1 2.7.5 0 .6-.6.3-1.4-.3-.8.2-1.6 1.3-1.9 1.4-.4 1.5-.5.2-.6-.9 0-2.2.5-2.8 1.2zM198.3 263.7c.9.2 1.7.9 1.7 1.4 0 .5.5.9 1.1.9.8 0 .8-.5-.1-1.5-.7-.8-2-1.4-2.9-1.4-1.3.1-1.3.2.2.6zM189.8 280.7c.7.3 1.6.2 1.9-.1.4-.3-.2-.6-1.3-.5-1.1 0-1.4.3-.6.6zM280 285.8c0 1.9 5.7 3.1 11 2.2l5.5-.9-5.3.3c-3.5.2-5.8-.1-6.7-1-1.4-1.5-4.5-1.9-4.5-.6zM280 290c0 .5.5 1 1.1 1 .5 0 .7-.5.4-1-.3-.6-.8-1-1.1-1-.2 0-.4.4-.4 1zM393.8 290.7c1.2.2 3.2.2 4.5 0 1.2-.2.2-.4-2.3-.4s-3.5.2-2.2.4zM424.6 293.3c.3 1 .9 1.5 1.2 1.2.3-.3 0-1.1-.7-1.8-1-.9-1.1-.8-.5.6zM281.8 296.7c.6.2 1.8.2 2.5 0 .6-.3.1-.5-1.3-.5-1.4 0-1.9.2-1.2.5zM293.3 305.7c.9.2 2.3.2 3 0 .6-.3-.1-.5-1.8-.5-1.6 0-2.2.2-1.2.5zM427.5 310c.3.5.8 1 1.1 1 .2 0 .4-.5.4-1 0-.6-.5-1-1.1-1-.5 0-.7.4-.4 1zM430.5 310.1c-.4.6-.5 1.2-.2 1.5.2.3.7-.2 1-1.1.7-1.7.1-2-.8-.4zM429.7 314.7c.4 1.1.8 1.2 1.3.3.6-.9.9-.9 1.3-.1s.5.8.3 0c-.1-.7-.9-1.3-1.8-1.5-1.1-.1-1.5.3-1.1 1.3zM249.5 315c-.3.5-.2 1 .4 1 .5 0 1.3-.5 1.6-1 .3-.6.2-1-.4-1-.5 0-1.3.4-1.6 1zM246 319c-.8.5-2.4.7-3.5.5-1.1-.3-1.4-.2-.7.1 1.8.8 1.5 2.7-.4 2-.9-.3-1.2-.2-.9.5 1.1 1.8-1.4 3.6-4.5 3.3-1.6-.2-3.1 0-3.4.4-.2.4 1.1.8 2.9.8 2.6.1 4.3-.8 8.1-4.2 4.7-4.3 5.5-5.4 2.4-3.4zM233.5 329c.3.5.8 1 1.1 1 .2 0 .4-.5.4-1 0-.6-.5-1-1.1-1-.5 0-.7.4-.4 1zM191.8 329.7c1.2.2 3.2.2 4.5 0 1.2-.2.2-.4-2.3-.4s-3.5.2-2.2.4zM191.7 332.7c-.4.3-.7 1.3-.6 2.2 0 1.2.3 1.1.9-.4.7-1.7.9-1.7.9-.3.1 2.1 1.7 2.4 2.4.4.9-2.2-1.9-3.7-3.6-1.9z"/></svg>