<svg xmlns="http://www.w3.org/2000/svg" width="1600" height="1200" fill="none">
  <g stroke="#1f1f24" stroke-linecap="round" stroke-linejoin="round" fill="none">

    <!-- === TOP ZONE 0-200 === -->
    <path d="M-20,30 C80,0 140,80 220,30 C300,-20 380,80 460,30 C540,-20 620,80 700,40 C780,0 860,80 940,30 C1020,-20 1100,70 1180,30 C1260,-10 1340,60 1420,30 C1500,0 1560,50 1620,30" stroke-width="2.5" opacity="0.5"/>
    <path d="M-20,45 C80,15 140,95 220,45 C300,-5 380,95 460,45 C540,-5 620,95 700,55" stroke-width="1.2" opacity="0.25"/>

    <path d="M-20,90 C100,40 200,160 320,90 C440,20 540,170 660,100 C780,30 880,160 1000,90 C1120,20 1220,160 1340,90 C1460,20 1540,140 1620,90" stroke-width="2" opacity="0.4"/>

    <path d="M400,60 C420,20 460,40 450,80 C440,120 400,110 410,70 C420,40 450,50 445,80" stroke-width="1.5" opacity="0.3"/>

    <path d="M-20,150 C60,100 120,200 200,150 C280,100 360,200 440,150 C520,100 600,200 680,145 C760,90 840,200 920,150 C1000,100 1080,195 1160,150 C1240,105 1320,190 1400,150 C1480,110 1540,180 1620,150" stroke-width="2.5" opacity="0.45"/>
    <path d="M-20,165 C60,115 120,215 200,165 C280,115 360,215 440,165 C520,115 600,215 680,160" stroke-width="1" opacity="0.2"/>

    <path d="M800,130 C830,100 860,160 890,130 C920,100 950,160 980,130 C1010,100 1040,160 1070,130 C1100,100 1130,160 1160,130" stroke-width="2" opacity="0.35"/>

    <!-- === ZONE 200-400 === -->
    <path d="M-20,220 C120,160 220,300 360,230 C500,160 600,310 740,230 C880,150 980,310 1120,230 C1260,150 1360,300 1500,230 C1560,200 1590,250 1620,230" stroke-width="2.5" opacity="0.5"/>
    <path d="M-20,235 C120,175 220,315 360,245 C500,175 600,325 740,245" stroke-width="1.2" opacity="0.25"/>

    <path d="M900,210 C940,180 980,250 1020,210 C1060,170 1100,250 1140,210 C1180,170 1220,250 1260,210 C1300,170 1340,240 1380,210" stroke-width="2" opacity="0.4"/>

    <path d="M-20,290 C80,230 160,360 260,290 C360,220 440,370 540,290 C640,210 720,370 820,290 C920,210 1000,360 1100,290 C1200,220 1280,360 1380,290 C1480,220 1550,340 1620,290" stroke-width="2" opacity="0.45"/>

    <path d="M100,320 C140,280 160,360 200,320 C240,280 260,360 300,320 C340,280 360,360 400,320 C440,280 460,360 500,320" stroke-width="3" opacity="0.45"/>

    <path d="M600,350 C680,290 760,420 860,340 C960,260 1040,420 1140,340 C1240,260 1320,410 1420,340 C1480,300 1540,370 1620,340" stroke-width="2" opacity="0.4"/>
    <path d="M610,360 C690,300 770,430 870,350 C970,270 1050,430 1150,350" stroke-width="1" opacity="0.2"/>

    <path d="M200,380 C220,340 260,360 250,400 C240,440 200,430 210,390 C220,360 250,370 245,400" stroke-width="1.5" opacity="0.3"/>

    <!-- Drips -->
    <path d="M360,230 L360,285" stroke-width="1.5" opacity="0.3"/>
    <path d="M1100,290 L1100,340" stroke-width="1.5" opacity="0.25"/>

    <!-- === ZONE 400-600 === -->
    <path d="M-20,420 C100,360 200,500 320,420 C440,340 540,510 660,430 C780,350 880,510 1000,420 C1120,330 1220,500 1340,420 C1460,340 1540,480 1620,420" stroke-width="2.5" opacity="0.5"/>
    <path d="M-20,435 C100,375 200,515 320,435 C440,355 540,525 660,445" stroke-width="1.2" opacity="0.25"/>

    <path d="M700,400 C740,370 780,440 820,400 C860,360 900,440 940,400 C980,360 1020,440 1060,400 C1100,360 1140,440 1180,400 C1220,360 1260,430 1300,400" stroke-width="2" opacity="0.4"/>

    <path d="M-20,490 C60,430 140,560 240,490 C340,420 420,570 520,490 C620,410 700,560 800,490 C900,420 980,560 1080,490 C1180,420 1260,550 1360,490 C1460,430 1540,540 1620,490" stroke-width="2.5" opacity="0.45"/>
    <path d="M-20,505 C60,445 140,575 240,505 C340,435 420,585 520,505 C620,425 700,575 800,505" stroke-width="1" opacity="0.2"/>

    <path d="M850,470 C890,430 910,510 950,470 C990,430 1010,510 1050,470 C1090,430 1110,510 1150,470 C1190,430 1210,510 1250,470" stroke-width="3" opacity="0.45"/>

    <path d="M-20,560 C120,490 240,640 380,560 C520,480 640,650 780,560 C920,470 1040,640 1180,560 C1320,480 1440,630 1580,560 C1600,550 1610,570 1620,560" stroke-width="2" opacity="0.4"/>
    <path d="M-20,575 C120,505 240,655 380,575 C520,495 640,665 780,575" stroke-width="1" opacity="0.18"/>

    <!-- Spiral -->
    <path d="M1400,500 C1420,460 1460,480 1450,520 C1440,560 1400,550 1410,510 C1420,480 1450,490 1445,520" stroke-width="1.5" opacity="0.3"/>

    <!-- Drips -->
    <path d="M660,430 L660,480" stroke-width="1.5" opacity="0.3"/>
    <path d="M380,560 L378,615" stroke-width="1.5" opacity="0.25"/>
    <path d="M520,490 L520,535" stroke-width="1.2" opacity="0.25"/>

    <!-- === ZONE 600-800 === -->
    <path d="M-20,630 C80,570 160,700 260,630 C360,560 440,710 540,630 C640,550 720,700 820,630 C920,560 1000,700 1100,630 C1200,560 1280,700 1380,630 C1480,560 1560,690 1620,630" stroke-width="2.5" opacity="0.5"/>
    <path d="M-20,645 C80,585 160,715 260,645 C360,575 440,725 540,645 C640,565 720,715 820,645" stroke-width="1.2" opacity="0.25"/>

    <path d="M300,670 C340,630 360,710 400,670 C440,630 460,710 500,670 C540,630 560,710 600,670 C640,630 660,710 700,670 C740,630 760,700 800,670" stroke-width="2" opacity="0.4"/>

    <path d="M900,650 C980,590 1060,740 1160,660 C1260,580 1340,730 1440,660 C1500,620 1560,700 1620,660" stroke-width="2" opacity="0.45"/>
    <path d="M910,665 C990,605 1070,755 1170,675 C1270,595 1350,745 1450,675" stroke-width="1" opacity="0.2"/>

    <path d="M-20,720 C100,660 200,800 320,720 C440,640 540,810 660,730 C780,650 880,800 1000,720 C1120,640 1220,800 1340,720 C1460,640 1540,780 1620,720" stroke-width="2.5" opacity="0.45"/>

    <path d="M50,760 C90,720 110,800 150,760 C190,720 210,800 250,760 C290,720 310,800 350,760 C390,720 410,800 450,760 C490,720 510,790 550,760" stroke-width="3" opacity="0.45"/>

    <path d="M600,780 C700,710 800,860 920,780 C1040,700 1140,860 1260,780 C1380,700 1460,840 1560,780 C1590,760 1610,790 1620,780" stroke-width="2" opacity="0.4"/>
    <path d="M610,795 C710,725 810,875 930,795 C1050,715 1150,875 1270,795" stroke-width="1" opacity="0.18"/>

    <!-- Spiral -->
    <path d="M150,700 C170,660 210,680 200,720 C190,760 150,750 160,710 C170,680 200,690 195,720" stroke-width="1.5" opacity="0.3"/>

    <!-- Drips -->
    <path d="M260,630 L260,680" stroke-width="1.5" opacity="0.3"/>
    <path d="M820,630 L818,685" stroke-width="1.5" opacity="0.25"/>
    <path d="M1000,720 L1000,770" stroke-width="1.2" opacity="0.25"/>
    <path d="M660,730 L660,775" stroke-width="1.5" opacity="0.3"/>

    <!-- === ZONE 800-1000 === -->
    <path d="M-20,840 C120,770 240,920 380,840 C520,760 640,930 780,850 C920,770 1040,920 1180,840 C1320,760 1440,910 1580,840 C1600,830 1610,850 1620,840" stroke-width="2.5" opacity="0.5"/>
    <path d="M-20,855 C120,785 240,935 380,855 C520,775 640,945 780,865" stroke-width="1.2" opacity="0.25"/>

    <path d="M800,830 C840,790 860,870 900,830 C940,790 960,870 1000,830 C1040,790 1060,870 1100,830 C1140,790 1160,870 1200,830 C1240,790 1260,860 1300,830" stroke-width="2" opacity="0.4"/>

    <path d="M-20,910 C80,850 160,980 260,910 C360,840 440,990 540,910 C640,830 720,980 820,910 C920,840 1000,980 1100,910 C1200,840 1280,970 1380,910 C1480,840 1550,960 1620,910" stroke-width="2" opacity="0.45"/>
    <path d="M-20,925 C80,865 160,995 260,925 C360,855 440,1005 540,925" stroke-width="1" opacity="0.2"/>

    <path d="M600,940 C680,880 760,1010 860,930 C960,850 1040,1000 1140,930 C1240,860 1320,990 1420,930 C1500,890 1560,960 1620,930" stroke-width="2.5" opacity="0.45"/>
    <path d="M610,955 C690,895 770,1025 870,945 C970,865 1050,1015 1150,945" stroke-width="1" opacity="0.2"/>

    <path d="M100,960 C140,920 160,1000 200,960 C240,920 260,1000 300,960 C340,920 360,1000 400,960 C440,920 460,1000 500,960" stroke-width="3" opacity="0.45"/>

    <!-- Drips -->
    <path d="M380,840 L380,895" stroke-width="1.5" opacity="0.3"/>
    <path d="M540,910 L540,960" stroke-width="1.5" opacity="0.25"/>
    <path d="M1180,840 L1180,890" stroke-width="1.2" opacity="0.25"/>

    <!-- === ZONE 1000-1200 === -->
    <path d="M-20,1030 C100,970 200,1100 320,1030 C440,960 540,1110 660,1030 C780,950 880,1100 1000,1030 C1120,960 1220,1100 1340,1030 C1460,960 1540,1080 1620,1030" stroke-width="2.5" opacity="0.5"/>
    <path d="M-20,1045 C100,985 200,1115 320,1045 C440,975 540,1125 660,1045 C780,965 880,1115 1000,1045" stroke-width="1.2" opacity="0.25"/>

    <path d="M500,1060 C540,1020 560,1100 600,1060 C640,1020 660,1100 700,1060 C740,1020 760,1100 800,1060 C840,1020 860,1100 900,1060 C940,1020 960,1090 1000,1060" stroke-width="2" opacity="0.4"/>

    <path d="M-20,1110 C80,1050 160,1180 260,1110 C360,1040 440,1190 540,1110 C640,1030 720,1180 820,1110 C920,1040 1000,1180 1100,1110 C1200,1040 1280,1170 1380,1110 C1480,1040 1550,1160 1620,1110" stroke-width="2" opacity="0.45"/>

    <path d="M1100,1050 C1180,990 1260,1130 1360,1060 C1460,990 1540,1120 1620,1060" stroke-width="2.5" opacity="0.45"/>
    <path d="M1110,1065 C1190,1005 1270,1145 1370,1075" stroke-width="1" opacity="0.2"/>

    <path d="M-20,1170 C60,1120 140,1220 240,1170 C340,1120 420,1220 520,1170 C620,1120 700,1210 780,1170 C860,1130 940,1210 1020,1170 C1100,1130 1180,1210 1260,1170 C1340,1130 1420,1200 1500,1170 C1560,1145 1590,1185 1620,1170" stroke-width="2.5" opacity="0.4"/>

    <!-- Spirals -->
    <path d="M1350,1100 C1370,1060 1410,1080 1400,1120 C1390,1160 1350,1150 1360,1110 C1370,1080 1400,1090 1395,1120" stroke-width="1.5" opacity="0.3"/>
    <path d="M250,1080 C270,1040 310,1060 300,1100 C290,1140 250,1130 260,1090 C270,1060 300,1070 295,1100" stroke-width="1.5" opacity="0.3"/>

    <!-- Drips -->
    <path d="M660,1030 L660,1080" stroke-width="1.5" opacity="0.3"/>
    <path d="M1340,1030 L1340,1085" stroke-width="1.5" opacity="0.25"/>
    <path d="M820,1110 L820,1160" stroke-width="1.2" opacity="0.25"/>

  </g>
</svg>
