<?xml version="1.0" standalone="no"?>
<!DOCTYPE svg PUBLIC "-//W3C//DTD SVG 20010904//EN"
 "http://www.w3.org/TR/2001/REC-SVG-20010904/DTD/svg10.dtd">
<svg version="1.0" xmlns="http://www.w3.org/2000/svg"
 width="1591.000000pt" height="1591.000000pt" viewBox="0 0 1591.000000 1591.000000"
 preserveAspectRatio="xMidYMid meet">
<metadata>
Created by potrace 1.14, written by Peter Selinger 2001-2017
</metadata>
<g transform="translate(0.000000,1591.000000) scale(0.100000,-0.100000)"
fill="#000000" stroke="none">
<path d="M7418 15705 c-2 -1 -64 -6 -138 -9 -74 -4 -151 -9 -170 -11 -19 -2
-71 -6 -115 -10 -44 -3 -93 -8 -110 -10 -16 -2 -52 -7 -80 -10 -27 -3 -61 -8
-75 -10 -14 -2 -47 -6 -75 -10 -27 -4 -66 -8 -85 -11 -201 -26 -676 -127 -915
-195 -355 -101 -717 -228 -990 -349 -22 -9 -78 -34 -125 -55 -585 -259 -1240
-669 -1754 -1097 -533 -445 -1053 -1008 -1397 -1513 -30 -44 -57 -82 -60 -85
-5 -5 -143 -215 -179 -274 -581 -946 -938 -1928 -1090 -3001 -6 -44 -13 -91
-15 -105 -3 -14 -7 -50 -10 -80 -3 -30 -7 -71 -10 -90 -2 -19 -6 -66 -9 -105
-4 -57 -3 -65 6 -45 42 94 145 292 196 378 59 98 63 110 82 224 24 139 83 424
106 513 8 33 17 67 19 75 2 8 19 74 38 145 161 590 397 1160 716 1729 11 19
48 81 82 138 761 1262 1849 2261 3159 2900 279 136 245 121 415 191 425 177
1023 360 1374 422 19 3 37 7 40 9 3 2 26 7 51 10 25 3 56 8 70 11 14 3 39 8
55 10 17 3 37 8 45 10 8 2 38 6 65 10 28 3 77 10 110 15 58 9 94 14 180 24 92
12 124 15 190 21 39 3 90 7 115 10 251 26 923 26 1197 0 27 -2 77 -7 113 -10
36 -3 81 -8 100 -10 109 -13 218 -26 240 -30 14 -2 61 -9 105 -15 44 -7 89
-14 100 -16 11 -2 47 -9 80 -14 61 -10 91 -16 135 -25 14 -3 35 -7 48 -10 13
-2 31 -6 40 -9 9 -3 31 -8 49 -11 60 -10 288 -67 448 -112 959 -270 1902 -758
2675 -1386 44 -35 196 -162 200 -167 4 -4 144 -129 196 -175 7 -5 75 -72 151
-147 l140 -138 99 21 c55 11 110 23 123 25 20 4 1 27 -165 192 -104 103 -227
221 -273 262 -47 41 -92 82 -100 90 -38 35 -205 173 -316 261 -403 318 -819
584 -1280 819 -182 92 -444 214 -540 250 -16 6 -43 17 -60 25 -117 51 -458
172 -645 229 -180 54 -501 139 -565 149 -16 3 -73 14 -125 26 -52 11 -111 23
-130 26 -19 3 -48 8 -65 12 -16 3 -39 7 -50 9 -11 1 -33 5 -50 8 -117 21 -335
51 -450 61 -33 3 -73 8 -90 10 -16 2 -73 7 -125 10 -52 4 -111 9 -130 11 -39
6 -787 14 -792 9z"/>
<path d="M7487 15184 c-1 -1 -69 -5 -150 -9 -82 -3 -156 -8 -165 -10 -9 -1
-57 -6 -107 -10 -49 -3 -101 -8 -115 -10 -14 -2 -52 -6 -85 -10 -33 -3 -71 -8
-85 -10 -14 -2 -43 -6 -65 -10 -63 -9 -277 -43 -310 -50 -16 -3 -66 -13 -110
-21 -44 -9 -136 -29 -205 -46 -69 -16 -132 -31 -140 -33 -266 -58 -830 -252
-1125 -385 -940 -426 -1695 -961 -2379 -1691 -437 -465 -882 -1099 -1152
-1641 -20 -40 -50 -100 -66 -133 -169 -338 -354 -831 -462 -1230 -25 -93 -50
-183 -55 -198 -13 -37 -7 -34 80 45 105 94 187 158 288 225 l88 58 48 140
c240 705 566 1325 1014 1925 93 125 285 363 335 416 6 6 47 51 91 100 83 92
328 339 405 410 95 86 157 141 209 184 29 25 59 50 65 56 119 111 658 496 826
590 19 10 37 22 40 25 3 3 30 19 60 36 30 17 73 41 95 54 374 212 834 414
1265 554 285 92 781 212 995 239 22 3 49 7 60 10 47 9 151 23 310 41 30 3 157
15 225 20 271 22 798 23 1035 1 17 -2 66 -6 110 -10 44 -4 96 -9 115 -11 19
-3 53 -7 75 -9 22 -3 77 -10 122 -16 46 -6 97 -13 114 -15 17 -2 45 -7 62 -11
18 -4 43 -8 57 -9 44 -5 240 -45 375 -77 72 -16 137 -31 145 -33 61 -12 347
-97 508 -151 597 -200 1198 -504 1730 -876 126 -88 359 -265 446 -338 114 -96
256 -221 310 -273 19 -19 36 -27 50 -24 28 7 319 127 329 136 8 8 -149 158
-320 309 -312 274 -696 552 -1063 770 -411 244 -914 477 -1323 613 -51 17
-101 34 -112 39 -37 16 -349 107 -425 124 -8 2 -35 9 -60 16 -25 7 -55 14 -68
16 -12 3 -62 14 -110 25 -48 12 -96 23 -107 25 -11 2 -31 5 -45 8 -54 10 -136
26 -164 30 -16 3 -52 10 -80 15 -28 6 -71 13 -96 16 -101 13 -278 36 -316 40
-22 3 -74 7 -115 10 -41 3 -88 7 -105 10 -83 12 -786 29 -797 19z"/>
<path d="M7711 14383 c-24 -82 -46 -151 -50 -155 -3 -4 -77 -8 -164 -10 l-158
-3 24 -20 c13 -11 63 -47 112 -80 48 -33 97 -67 108 -76 l21 -17 -43 -143
c-24 -79 -46 -151 -49 -159 -4 -10 3 -8 19 6 13 11 72 58 131 103 l108 82 132
-91 c72 -49 132 -89 134 -87 1 1 -22 70 -51 152 -29 83 -53 150 -52 151 29 16
246 188 242 192 -5 5 -146 4 -252 -2 -24 -1 -47 0 -52 3 -4 3 -25 53 -45 111
-48 134 -68 190 -70 190 -1 0 -21 -66 -45 -147z"/>
<path d="M4665 13690 c4 -25 11 -70 16 -100 5 -30 11 -84 15 -120 l6 -65 -144
-69 -143 -69 60 -13 c33 -7 74 -14 90 -17 106 -17 166 -30 169 -36 2 -3 7 -33
10 -66 4 -33 11 -87 16 -120 6 -33 12 -73 14 -90 2 -16 5 -32 5 -35 1 -3 35
58 77 135 42 77 77 141 79 143 2 2 54 -6 117 -17 62 -11 133 -23 158 -26 l45
-6 -72 73 c-39 40 -90 93 -112 117 l-41 43 56 107 c31 58 60 111 64 116 5 6
14 23 19 38 l11 27 -48 -24 c-26 -13 -91 -45 -145 -71 l-99 -47 -114 118 -115
118 6 -44z"/>
<path d="M10735 13613 l-110 -115 -143 71 c-78 38 -142 67 -142 63 0 -4 8 -23
18 -42 87 -164 122 -234 120 -241 -2 -5 -46 -52 -98 -106 -96 -99 -134 -142
-114 -130 9 5 70 17 280 54 34 6 23 22 144 -200 23 -43 43 -77 45 -75 2 2 6
30 10 63 9 69 11 85 19 142 4 23 9 56 11 74 5 38 3 37 45 44 19 3 71 12 115
20 44 8 98 17 120 21 22 3 41 7 42 8 2 1 -63 34 -142 72 l-146 69 7 54 c3 29
7 63 9 75 16 96 28 196 24 195 -2 0 -54 -53 -114 -116z"/>
<path d="M7458 13445 c-1 -1 -52 -6 -113 -9 -109 -7 -140 -9 -245 -21 -72 -8
-119 -15 -150 -20 -14 -3 -38 -7 -55 -9 -184 -29 -190 -31 -357 -67 -284 -62
-683 -186 -883 -274 -16 -7 -79 -35 -140 -61 -596 -259 -1172 -652 -1640
-1119 -240 -239 -366 -382 -537 -610 -235 -314 -476 -723 -626 -1062 -36 -82
-38 -89 -18 -96 8 -3 47 -29 86 -58 39 -28 72 -50 74 -48 2 2 25 54 52 114
209 477 540 988 894 1380 59 66 341 348 405 405 74 67 266 227 299 249 12 8
23 18 26 21 18 22 398 281 444 302 14 6 26 15 26 20 0 4 4 8 9 8 5 0 45 21 88
46 132 79 410 217 578 288 260 110 699 250 915 292 13 3 56 12 95 20 38 8 86
17 105 20 19 3 58 9 85 14 42 8 184 27 340 45 113 13 285 20 515 20 258 0 441
-10 600 -30 25 -3 60 -8 78 -10 641 -79 1358 -317 1901 -630 42 -24 89 -46
105 -49 76 -14 396 -27 396 -17 0 3 -8 11 -17 17 -102 65 -255 161 -280 175
-18 11 -50 29 -70 40 -176 100 -371 197 -538 269 -55 23 -114 48 -130 56 -229
100 -743 251 -1020 298 -16 3 -68 12 -115 20 -47 8 -103 17 -125 20 -118 16
-206 26 -260 31 -33 3 -85 8 -115 11 -59 6 -676 15 -682 9z"/>
<path d="M6172 12940 c-96 -44 -112 -86 -127 -330 -10 -169 -16 -258 -20 -305
-4 -43 -10 -138 -20 -300 -4 -69 -11 -78 -103 -127 -48 -27 -114 -64 -147 -83
-33 -19 -78 -44 -100 -56 -70 -38 -75 -45 -75 -120 0 -81 -6 -85 -154 -115
-62 -12 -236 -73 -329 -115 -266 -119 -473 -310 -548 -508 -70 -184 -64 -379
18 -553 35 -72 104 -167 159 -218 54 -49 203 -160 214 -160 18 0 10 -21 -32
-83 -24 -34 -45 -64 -48 -67 -16 -15 -266 -436 -352 -590 -196 -352 -380 -724
-515 -1039 -50 -117 -56 -129 -49 -86 3 17 8 53 11 80 3 28 8 61 10 75 2 14 7
45 10 70 38 285 116 678 202 1015 62 243 69 287 54 327 -15 40 -80 78 -179
103 -194 50 -301 50 -410 -2 -85 -41 -142 -123 -252 -368 -12 -27 -41 -88 -62
-135 -115 -244 -281 -629 -383 -885 -37 -93 -73 -183 -80 -200 -32 -77 -95
-245 -95 -254 0 -5 -5 -13 -12 -17 -6 -4 -9 -3 -6 2 3 5 9 49 12 99 4 49 9 99
11 110 2 11 7 38 10 60 8 62 15 102 36 210 11 55 22 114 25 130 2 17 9 55 14
85 5 30 12 75 15 100 3 25 9 77 14 115 8 71 6 297 -3 344 -3 14 -9 44 -12 66
-3 22 -17 78 -30 125 -89 308 -300 502 -604 554 -106 18 -292 19 -390 0 -125
-22 -132 -24 -225 -55 -359 -119 -704 -410 -994 -839 -379 -560 -494 -1030
-340 -1382 82 -187 233 -337 395 -393 129 -44 234 -42 249 6 10 29 -10 54 -68
87 -128 72 -180 219 -153 432 14 120 91 369 164 535 132 299 366 663 567 885
124 137 233 224 364 293 286 151 503 88 561 -161 15 -64 19 -208 8 -276 -4
-28 -10 -73 -13 -101 -3 -27 -11 -79 -16 -115 -6 -36 -12 -78 -14 -95 -1 -16
-5 -50 -9 -75 -3 -25 -9 -63 -12 -85 -3 -22 -7 -51 -9 -65 -2 -14 -6 -43 -9
-65 -3 -22 -10 -76 -16 -120 -6 -45 -13 -99 -15 -120 -3 -22 -10 -67 -15 -100
-5 -33 -12 -85 -15 -115 -3 -30 -7 -66 -10 -80 -2 -14 -7 -45 -10 -70 -3 -25
-8 -61 -11 -80 -3 -19 -7 -50 -9 -68 -5 -41 -13 -100 -25 -177 -5 -33 -12 -87
-16 -120 -3 -33 -8 -69 -10 -79 -2 -11 -8 -56 -14 -100 -6 -45 -13 -97 -16
-117 -2 -20 -7 -54 -9 -75 -3 -22 -7 -57 -11 -79 -10 -70 -13 -89 -18 -130 -3
-22 -12 -89 -20 -150 -8 -60 -18 -132 -21 -160 -3 -27 -8 -59 -10 -71 -21
-101 -23 -204 -5 -270 30 -108 193 -200 390 -220 47 -5 58 -3 78 15 12 12 22
27 23 34 0 7 2 19 4 27 2 8 6 33 10 55 11 66 73 375 89 445 8 36 17 76 19 90
9 47 105 413 152 575 128 443 324 970 545 1470 67 151 312 657 316 652 1 -1
-15 -83 -36 -182 -21 -99 -41 -193 -44 -210 -3 -16 -8 -43 -11 -60 -5 -26 -20
-110 -40 -220 -3 -16 -12 -75 -20 -130 -9 -55 -18 -111 -20 -125 -4 -23 -9
-60 -21 -155 -3 -22 -7 -51 -9 -65 -2 -14 -6 -52 -10 -85 -3 -33 -8 -71 -10
-85 -2 -14 -6 -56 -10 -93 -3 -37 -8 -76 -10 -85 -1 -9 -6 -60 -10 -112 -4
-52 -9 -113 -10 -135 -25 -308 -30 -504 -15 -585 28 -149 107 -221 297 -271
110 -29 130 -31 152 -19 35 18 42 39 56 170 18 180 78 424 170 690 20 58 40
114 45 125 5 11 26 63 45 115 19 52 39 104 44 115 5 11 46 108 92 215 79 187
170 386 246 535 82 161 178 343 200 377 13 21 23 39 23 42 0 6 121 211 201
341 104 169 221 344 215 320 -12 -45 -48 -202 -53 -225 -2 -14 -11 -54 -19
-90 -21 -91 -54 -248 -60 -290 -3 -19 -9 -51 -14 -70 -5 -20 -12 -51 -14 -70
-2 -20 -12 -74 -20 -120 -9 -47 -18 -103 -22 -125 -3 -22 -7 -51 -9 -65 -6
-36 -28 -196 -40 -290 -3 -19 -7 -51 -10 -70 -10 -81 -27 -245 -40 -395 -3
-38 -8 -88 -10 -110 -3 -37 -11 -144 -21 -295 -2 -36 -6 -249 -8 -475 -5 -449
1 -533 48 -681 69 -215 237 -346 444 -346 82 0 128 12 147 39 13 18 9 76 -7
107 -18 33 -57 163 -67 224 -6 31 -13 71 -16 87 -10 60 -19 193 -19 295 0 117
13 497 19 575 2 28 6 100 10 160 3 61 7 128 10 150 2 22 7 76 10 120 3 44 8
96 10 115 2 19 6 67 10 105 3 39 8 81 10 95 3 14 7 54 10 90 3 36 7 76 10 90
2 14 7 48 9 75 3 28 10 84 16 125 6 41 13 91 16 110 19 136 48 317 69 435 3
17 37 185 51 250 2 11 25 113 51 227 l47 207 171 -2 c214 -1 256 3 510 48 11
1 58 13 105 25 466 118 778 351 887 662 21 61 26 94 29 198 3 171 -28 292
-118 450 -24 41 -42 84 -40 96 4 28 52 84 77 88 11 2 38 9 60 15 22 5 54 12
70 15 17 3 97 19 179 36 82 17 210 42 285 56 245 46 287 53 345 60 43 6 203
38 231 48 117 38 246 132 261 189 8 33 30 43 152 72 l109 26 21 44 c53 109
146 165 285 170 128 5 238 -21 413 -98 56 -25 89 -35 110 -31 50 9 86 54 99
127 7 34 10 38 34 33 78 -15 187 -31 281 -40 36 -4 80 -9 98 -12 206 -27 650
-26 882 2 42 5 227 36 295 49 163 32 502 143 668 219 32 14 59 26 62 26 2 0
116 51 252 114 367 168 645 272 798 299 17 3 55 10 85 16 237 44 527 46 745 6
128 -23 131 -24 256 -65 226 -74 475 -213 635 -355 237 -209 410 -452 522
-733 36 -90 84 -245 97 -315 3 -12 7 -33 10 -47 17 -87 31 -252 29 -354 -3
-166 -19 -276 -71 -481 -14 -55 -26 -107 -28 -115 -12 -55 -68 -248 -118 -405
-211 -658 -489 -1316 -672 -1590 -69 -103 -85 -122 -175 -218 l-66 -69 0 59
c-1 173 -42 290 -212 608 -99 186 -140 317 -140 450 0 143 58 295 159 414 70
84 79 100 79 145 0 43 -32 69 -76 62 -47 -7 -105 -15 -163 -22 -30 -3 -61 -7
-70 -9 -9 -1 -43 -6 -76 -9 -148 -17 -183 -28 -241 -79 -55 -48 -69 -63 -139
-158 -137 -185 -242 -395 -375 -744 -104 -273 -306 -562 -624 -890 -94 -98
-105 -107 -102 -80 5 34 11 83 26 210 13 115 21 182 26 220 2 17 6 53 9 80 9
76 15 126 20 165 3 19 7 60 10 90 3 30 7 66 10 80 2 14 7 48 10 75 3 28 9 75
15 105 5 30 12 75 15 100 3 25 10 70 15 100 10 59 19 117 26 165 10 63 47 221
56 239 18 34 1 82 -36 100 -58 27 -158 37 -243 24 -123 -19 -213 -88 -253
-195 -19 -51 -25 -81 -36 -183 -2 -25 -6 -55 -9 -68 -2 -12 -9 -48 -15 -80
-17 -93 -18 -98 -40 -179 -20 -72 -47 -153 -98 -293 -107 -293 -320 -719 -458
-916 -112 -160 -171 -207 -194 -151 -9 21 -5 374 4 427 3 14 7 60 11 102 3 42
8 86 10 96 2 10 6 43 10 73 3 30 8 65 10 79 2 14 6 46 9 72 3 26 8 63 11 82
10 70 14 102 20 151 3 28 8 61 10 75 3 14 7 39 9 55 13 84 49 303 52 320 2 11
6 34 10 50 3 17 21 76 40 133 31 91 34 105 22 130 -22 46 -72 63 -189 62 -114
0 -138 -3 -216 -27 -94 -29 -153 -100 -167 -198 -3 -22 -8 -51 -11 -65 -8 -35
-42 -227 -49 -275 -3 -22 -7 -56 -10 -75 -13 -88 -35 -250 -41 -300 -3 -30 -8
-68 -11 -85 -4 -28 -123 -277 -176 -370 -92 -160 -165 -274 -252 -390 -87
-115 -147 -182 -227 -250 -58 -50 -102 -75 -130 -75 -27 0 -66 55 -79 112 -15
65 -21 277 -10 338 5 25 11 79 14 121 4 42 8 85 10 95 2 11 7 46 10 79 4 33
11 89 16 125 5 36 12 92 16 124 3 33 7 67 9 76 2 8 6 43 10 75 4 33 9 71 11
85 2 14 7 45 9 70 3 25 8 56 10 70 2 14 7 43 9 65 3 22 12 87 20 145 8 58 20
143 26 190 6 47 13 96 15 110 5 32 14 96 21 146 6 44 10 70 19 129 3 22 8 54
11 70 12 82 14 85 50 86 19 1 37 2 42 3 4 2 39 6 77 10 39 5 78 10 88 12 10 2
46 6 80 9 34 4 107 13 162 20 91 13 103 17 128 45 30 34 35 75 13 118 -28 54
-67 60 -246 36 -121 -15 -288 -35 -328 -38 -10 0 -16 4 -16 9 1 6 5 33 8 60 4
28 9 57 11 65 2 8 6 31 9 50 3 19 7 44 10 55 2 11 7 40 11 65 4 25 9 52 10 61
2 9 6 33 9 52 25 157 79 362 112 429 29 58 30 68 3 101 -21 27 -59 42 -142 52
-176 24 -291 -2 -381 -85 -72 -66 -90 -125 -121 -395 -4 -27 -10 -75 -15 -105
-5 -30 -12 -75 -15 -100 -3 -25 -8 -56 -10 -70 -2 -14 -6 -41 -9 -60 -17 -127
-36 -254 -39 -256 -1 -1 -29 -4 -62 -8 -33 -3 -71 -8 -85 -11 -14 -2 -47 -6
-75 -9 -27 -3 -68 -7 -90 -10 -22 -2 -67 -7 -100 -11 -33 -3 -67 -8 -75 -10
-14 -4 -56 -9 -165 -21 -27 -3 -61 -7 -75 -10 -14 -2 -46 -6 -72 -9 -57 -7
-56 -11 -33 119 8 47 18 103 21 124 33 221 105 526 139 595 31 60 31 79 3 110
-31 33 -113 53 -228 56 -175 3 -279 -45 -347 -160 -25 -43 -35 -85 -48 -190
-3 -30 -8 -65 -10 -79 -2 -14 -7 -45 -10 -70 -4 -25 -8 -56 -10 -70 -2 -14 -6
-45 -10 -70 -8 -63 -27 -192 -30 -211 -2 -9 -6 -40 -10 -70 -7 -59 -24 -151
-28 -155 -2 -2 -56 -10 -124 -18 -91 -11 -140 -17 -173 -21 -19 -3 -60 -8 -90
-11 -119 -12 -163 -44 -162 -115 1 -33 7 -49 31 -72 32 -32 62 -37 151 -24 25
4 70 9 100 13 30 3 66 7 80 10 14 2 55 7 92 10 67 7 67 7 62 -17 -2 -13 -7
-41 -9 -63 -2 -21 -14 -100 -25 -175 -12 -75 -23 -152 -26 -171 -2 -19 -7 -53
-11 -75 -4 -22 -7 -44 -8 -50 -1 -18 -17 -125 -34 -235 -6 -36 -13 -87 -16
-115 -4 -27 -8 -57 -10 -65 -3 -8 -7 -38 -10 -66 -3 -28 -7 -61 -10 -73 -2
-13 -7 -49 -11 -80 -3 -31 -12 -63 -19 -71 -8 -8 -25 -48 -40 -87 -64 -178
-229 -511 -333 -672 -120 -187 -244 -330 -309 -357 -34 -15 -37 -14 -56 5 -19
19 -21 33 -21 158 -1 124 8 275 19 343 2 14 7 59 10 100 4 41 8 82 10 90 2 8
7 42 10 74 3 33 7 71 10 85 2 14 7 46 10 71 22 163 57 373 90 537 8 39 17 89
21 110 3 21 17 83 31 138 34 138 35 163 8 191 -35 35 -97 47 -210 41 -120 -6
-145 -11 -210 -41 -56 -26 -88 -54 -109 -94 -14 -27 -32 -100 -28 -114 4 -15
-14 -8 -48 20 -173 140 -443 168 -650 69 -207 -100 -424 -462 -509 -852 -56
-257 -71 -572 -37 -775 3 -14 7 -41 10 -60 9 -58 46 -168 84 -248 78 -166 266
-295 419 -287 135 7 245 124 381 405 33 69 84 189 113 268 29 78 56 142 59
142 3 0 3 -26 0 -57 -4 -32 -6 -116 -6 -188 1 -116 4 -135 24 -175 49 -94 156
-174 302 -226 62 -23 93 -27 180 -28 94 -1 111 2 162 26 150 70 331 319 504
696 l52 113 1 -58 c1 -151 33 -315 76 -389 52 -89 210 -199 344 -238 212 -62
356 1 551 239 140 173 259 363 401 644 l28 55 -2 -105 c-2 -181 27 -337 79
-426 52 -89 210 -197 353 -239 71 -21 193 -21 250 0 170 62 435 390 646 798
17 32 34 58 38 58 5 0 6 -4 3 -8 -5 -8 -20 -244 -19 -292 5 -177 145 -310 395
-376 197 -51 321 5 461 210 66 97 167 286 226 426 18 41 36 84 41 95 4 11 27
67 49 125 l42 105 -7 -65 c-3 -36 -7 -76 -9 -90 -4 -30 -13 -116 -20 -185 -3
-27 -7 -61 -10 -75 -2 -14 -7 -50 -10 -81 -2 -31 -7 -72 -9 -90 -3 -19 -13
-96 -22 -172 l-17 -138 -226 -227 c-357 -357 -510 -567 -590 -807 -36 -110
-42 -147 -42 -250 1 -245 139 -461 377 -589 123 -67 234 -94 365 -89 222 7
333 138 423 498 13 55 27 116 30 135 3 19 10 58 15 85 13 71 25 156 36 260 3
28 7 66 10 85 3 19 7 55 10 80 3 25 8 61 10 80 3 19 7 58 10 85 3 28 7 66 10
85 3 19 7 58 10 85 3 28 8 61 10 75 2 14 7 52 10 85 3 33 7 76 9 95 6 43 15
122 20 175 2 22 10 88 17 147 l12 106 46 50 c25 28 82 88 126 135 128 134 129
135 328 378 16 18 43 53 60 77 l31 43 22 -84 c92 -344 359 -574 679 -583 164
-5 315 45 515 169 259 162 423 325 611 609 73 110 214 352 246 423 7 16 17 37
22 45 32 52 180 387 248 560 213 540 390 1179 420 1510 12 132 6 388 -11 476
-2 10 -11 60 -20 109 -61 328 -227 676 -448 940 -197 235 -429 415 -708 549
-100 48 -313 126 -382 140 -135 27 -189 37 -225 42 -204 28 -476 25 -673 -7
-36 -6 -78 -13 -95 -16 -182 -29 -499 -140 -810 -283 -374 -173 -547 -245
-704 -296 -117 -39 -269 -81 -321 -89 -19 -3 -51 -10 -70 -15 -45 -12 -223
-37 -325 -46 -155 -14 -706 -6 -735 11 -3 1 -36 6 -75 9 -38 4 -122 15 -185
25 -63 10 -125 17 -136 15 -18 -3 -23 3 -33 41 -30 121 -177 193 -450 221 -75
8 -364 8 -462 0 -36 -3 -99 -8 -140 -11 -41 -3 -90 -8 -109 -10 -114 -15 -145
-15 -222 1 -112 23 -395 22 -563 -1 -16 -2 -74 -9 -129 -15 -54 -7 -106 -13
-115 -15 -9 -1 -52 -8 -96 -15 -44 -6 -118 -18 -165 -27 -46 -8 -96 -17 -110
-18 -14 -2 -50 -9 -80 -15 -30 -6 -71 -13 -90 -16 -19 -3 -38 -8 -41 -10 -4
-2 -24 -6 -45 -10 -22 -3 -66 -12 -99 -20 -46 -10 -61 -11 -67 -1 -18 31 -98
140 -138 188 -103 123 -405 411 -476 455 -45 28 -117 29 -172 4z m552 -450
c98 -120 88 -107 172 -225 194 -272 239 -363 268 -545 10 -59 7 -967 -3 -992
-32 -82 -143 -105 -256 -52 -67 32 -102 66 -40 39 22 -10 60 -20 85 -22 39 -4
48 -1 70 22 l25 27 1 486 c1 524 -3 563 -56 702 -78 202 -253 481 -467 748
-46 57 -83 106 -83 109 0 14 210 -206 284 -297z m-486 40 c50 -52 85 -132 85
-199 1 -61 -11 -206 -19 -233 -6 -21 -192 -119 -200 -106 -5 7 0 139 11 288 2
25 7 99 11 165 6 108 10 162 13 174 1 5 48 -37 99 -89z m1798 -159 c91 -41
167 -140 145 -187 -6 -13 -14 -24 -18 -24 -5 0 -35 -5 -68 -10 -33 -6 -76 -13
-95 -16 -19 -2 -57 -9 -85 -14 -27 -5 -72 -12 -100 -16 -27 -3 -59 -8 -70 -10
-11 -3 -36 -7 -55 -10 -19 -2 -46 -7 -60 -9 -14 -3 -42 -8 -64 -11 -21 -3 -46
-7 -55 -9 -9 -1 -78 -13 -154 -26 l-139 -22 -27 29 c-43 47 -141 168 -141 174
1 21 38 31 210 59 107 18 206 34 220 37 14 2 43 6 65 10 22 3 128 20 235 39
107 18 200 33 205 34 6 0 28 -8 51 -18z m779 -26 c145 14 617 21 737 11 248
-22 358 -62 358 -131 0 -39 -31 -45 -125 -24 -44 10 -102 21 -130 25 -27 3
-59 8 -70 10 -92 17 -484 25 -610 11 -76 -8 -138 -18 -147 -23 -4 -2 -14 -30
-24 -62 l-17 -57 -12 70 c-7 39 -26 103 -42 142 l-30 72 36 -24 c27 -18 46
-23 76 -20z m-2217 -329 c83 -52 111 -120 77 -186 -18 -34 -52 -59 -125 -90
-30 -12 -77 -33 -105 -45 -195 -88 -597 -255 -615 -255 -56 0 -142 61 -165
118 -14 32 -14 38 2 70 19 38 -19 16 570 318 l241 124 40 -14 c22 -8 58 -26
80 -40z m-198 -891 c-9 -11 -60 -19 -260 -40 -14 -2 -54 -6 -90 -11 -36 -4
-92 -8 -125 -8 l-60 -1 -2 148 -2 148 26 12 c15 7 137 55 272 107 l246 95 3
-219 c1 -140 -1 -223 -8 -231z m-863 235 c-1 -48 -4 -70 -13 -70 -25 0 -198
-61 -272 -96 -223 -106 -360 -252 -398 -421 -38 -171 12 -313 159 -449 61 -56
157 -124 176 -124 5 0 13 -5 16 -10 15 -24 -143 20 -220 60 -186 99 -284 241
-291 422 -13 319 276 615 713 732 135 36 130 37 130 -44z m254 -326 l59 -45 0
-54 c0 -49 -3 -56 -34 -82 -41 -34 -66 -77 -59 -104 8 -29 77 -84 125 -99 72
-22 178 -24 244 -5 157 45 206 125 117 190 -57 42 -63 52 -58 101 4 49 22 76
68 104 26 16 34 17 89 4 79 -19 148 -57 215 -118 146 -133 167 -301 53 -413
-88 -86 -323 -151 -570 -157 -343 -9 -632 107 -715 286 -78 168 34 315 320
419 28 10 58 18 68 19 10 0 45 -21 78 -46z m1279 -488 c58 -9 110 -27 110 -37
0 -24 -75 -151 -125 -212 -193 -234 -509 -377 -910 -411 -103 -9 -353 -10
-344 -2 2 2 36 7 74 10 422 39 737 160 941 361 95 94 151 180 188 288 4 12 12
16 23 13 10 -3 29 -7 43 -10z m2734 -1152 c-1 -5 -5 -31 -8 -59 -4 -27 -11
-75 -16 -105 -5 -30 -12 -75 -15 -100 -3 -25 -8 -56 -10 -70 -2 -14 -18 -119
-35 -235 -17 -115 -35 -239 -40 -275 -5 -36 -12 -74 -14 -85 -2 -11 -7 -47
-11 -80 -4 -33 -9 -69 -10 -80 -2 -11 -6 -42 -10 -70 -11 -88 -14 -97 -30
-115 -8 -9 -15 -20 -15 -24 0 -16 -147 -308 -215 -427 -138 -239 -256 -401
-395 -539 -176 -177 -238 -173 -274 19 -13 65 -14 262 -2 316 2 11 7 49 10 85
7 63 24 207 41 338 2 20 7 57 10 82 3 25 7 61 10 80 21 159 26 198 30 220 2
14 7 45 9 70 4 38 46 347 60 445 3 17 14 95 25 175 12 80 23 156 25 170 4 23
13 85 20 138 5 36 -1 34 152 52 55 6 113 13 129 16 54 7 109 14 160 19 28 3
100 12 160 20 61 8 135 18 165 21 30 3 56 7 58 9 7 6 37 -3 36 -11z m3844
-500 c7 -85 67 -241 183 -474 100 -202 177 -426 174 -507 -4 -108 -94 -241
-191 -285 -65 -28 -113 -29 -186 -4 -156 55 -273 184 -324 356 -27 93 -40 120
-59 120 -29 0 -23 20 40 125 35 59 94 178 131 264 37 86 85 190 107 231 76
144 109 200 116 200 4 0 8 -12 9 -26z m-6712 -480 c66 -31 93 -91 99 -220 4
-89 1 -103 -88 -410 -160 -547 -350 -940 -469 -969 -21 -5 -33 -1 -52 18 -40
40 -59 125 -60 267 -1 122 10 344 18 386 2 12 7 45 11 75 22 171 123 481 212
651 93 175 220 254 329 202z m5040 -1671 c-3 -10 -7 -38 -10 -63 -3 -25 -7
-61 -10 -80 -3 -19 -10 -73 -16 -120 -6 -47 -13 -96 -15 -110 -2 -14 -6 -47
-10 -75 -16 -139 -29 -219 -50 -315 -8 -36 -16 -79 -19 -96 -19 -105 -99 -294
-143 -336 -35 -34 -66 -39 -125 -22 -60 18 -113 78 -135 154 -20 68 -20 213 0
295 51 211 200 450 432 693 86 90 111 109 101 75z"/>
<path d="M13860 12342 c67 -94 280 -418 332 -507 408 -683 725 -1474 883
-2199 3 -17 10 -25 15 -20 5 5 34 85 65 178 l56 169 -36 131 c-160 578 -452
1261 -770 1796 -152 257 -276 440 -301 445 -13 3 -35 7 -49 10 -14 3 -67 8
-117 12 -92 6 -92 6 -78 -15z"/>
<path d="M13385 12318 c-44 -10 -124 -32 -178 -49 l-97 -30 27 -39 c16 -21 60
-80 99 -132 79 -104 254 -360 331 -483 212 -341 350 -614 558 -1110 23 -53
103 -278 131 -365 l27 -86 96 0 c112 0 174 -17 247 -69 26 -19 49 -33 51 -31
9 8 -121 404 -204 626 -133 352 -344 784 -551 1130 -119 199 -420 637 -449
652 -4 3 -44 -4 -88 -14z"/>
<path d="M4881 12062 c-1 -40 -54 -133 -95 -168 -22 -19 -67 -44 -99 -56 l-60
-22 45 -13 c53 -15 118 -57 149 -97 12 -15 32 -53 45 -84 18 -46 24 -53 30
-37 16 49 45 104 68 133 31 36 98 77 144 87 40 8 33 16 -27 35 -24 8 -64 33
-90 56 -42 37 -58 64 -99 164 -11 25 -11 25 -11 2z"/>
<path d="M2888 11837 c-26 -34 -58 -74 -72 -90 -13 -15 -34 -43 -47 -62 -13
-19 -29 -35 -36 -35 -6 0 -72 23 -147 50 -75 28 -140 50 -145 50 -5 0 31 -59
80 -132 l88 -132 -27 -35 c-14 -20 -32 -43 -39 -51 -74 -92 -131 -166 -128
-168 2 -2 66 15 144 37 77 23 146 41 154 41 7 0 51 -56 96 -125 46 -69 86
-127 91 -130 4 -3 9 35 10 83 3 134 8 224 14 229 8 8 269 82 291 83 18 1 17 2
-5 15 -14 7 -83 34 -153 60 -70 26 -127 52 -128 59 -1 11 0 50 6 219 2 53 3
97 2 97 -1 0 -23 -29 -49 -63z"/>
<path d="M12578 11885 c-3 -3 -4 -27 -2 -53 2 -26 5 -95 8 -153 l5 -107 -149
-53 c-82 -29 -146 -57 -142 -60 8 -8 260 -81 280 -82 6 0 12 -3 13 -6 0 -3 2
-15 4 -25 2 -10 6 -80 9 -154 2 -74 6 -136 9 -138 2 -2 41 55 88 126 46 71 91
130 99 130 8 0 78 -18 154 -40 77 -22 141 -38 143 -36 3 3 -65 91 -162 211
-14 17 -25 35 -24 40 0 6 37 66 84 135 46 69 80 126 77 127 -4 2 -67 -20 -141
-47 -74 -28 -140 -50 -146 -50 -10 0 -111 121 -190 227 -6 8 -13 11 -17 8z"/>
<path d="M11623 11666 c-50 -11 -95 -24 -99 -28 -3 -4 20 -36 53 -70 445 -466
827 -1072 1070 -1697 28 -71 31 -75 64 -79 35 -3 147 -26 186 -38 20 -5 17 6
-37 148 -233 615 -567 1173 -996 1662 -38 45 -79 91 -89 104 -23 26 -32 26
-152 -2z"/>
<path d="M4086 10387 c-20 -54 -82 -112 -129 -121 l-32 -6 50 -24 c58 -26 98
-69 115 -122 l13 -37 12 36 c19 54 55 93 112 120 l53 24 -40 12 c-51 15 -104
68 -122 122 l-14 42 -18 -46z"/>
<path d="M7845 10385 c-37 -98 -86 -154 -155 -176 -51 -16 -56 -26 -18 -33 63
-12 147 -95 164 -160 9 -37 19 -32 38 17 21 56 80 113 141 136 l50 19 -39 16
c-21 9 -41 16 -45 16 -4 0 -23 16 -43 34 -37 35 -65 80 -78 126 -7 23 -8 24
-15 5z"/>
<path d="M6350 9383 c0 -32 -47 -117 -84 -156 -39 -39 -109 -79 -161 -91 -30
-8 -30 -8 20 -25 67 -24 92 -38 131 -73 36 -33 94 -135 94 -167 0 -12 5 -21
12 -21 6 0 9 3 5 6 -8 8 38 111 67 149 33 42 96 85 159 105 51 18 52 18 22 25
-53 14 -123 54 -159 91 -36 37 -86 129 -86 158 0 9 -4 16 -10 16 -5 0 -10 -8
-10 -17z"/>
<path d="M15437 8278 c-30 -75 -109 -234 -144 -294 l-30 -50 -7 -215 c-4 -118
-9 -230 -11 -249 -2 -19 -6 -73 -10 -120 -3 -47 -8 -98 -9 -115 -2 -16 -7 -61
-10 -100 -4 -38 -11 -97 -16 -130 -5 -33 -12 -80 -14 -105 -3 -25 -7 -58 -10
-75 -3 -16 -10 -61 -16 -100 -7 -38 -14 -83 -17 -100 -13 -83 -69 -338 -104
-480 -244 -979 -677 -1890 -1280 -2695 -68 -91 -128 -170 -134 -176 -5 -7 -26
-31 -45 -55 -210 -260 -535 -604 -774 -820 -33 -30 -67 -61 -76 -69 -163 -153
-525 -433 -805 -622 -442 -297 -787 -481 -1380 -734 -132 -56 -464 -172 -655
-229 -160 -47 -413 -114 -490 -129 -14 -2 -54 -11 -90 -20 -80 -19 -387 -74
-455 -81 -27 -3 -57 -8 -65 -10 -8 -2 -40 -7 -70 -10 -30 -3 -66 -8 -80 -10
-36 -6 -105 -13 -190 -20 -41 -3 -88 -8 -105 -10 -205 -26 -1067 -26 -1225 -1
-14 3 -61 7 -105 11 -91 7 -116 9 -240 25 -117 14 -173 23 -275 40 -30 5 -71
12 -90 15 -92 15 -350 69 -480 101 -1102 269 -2151 800 -3030 1534 -285 239
-600 546 -835 814 -33 38 -65 74 -70 80 -14 14 -173 212 -205 255 -14 18 -30
38 -35 44 -54 61 -238 321 -362 512 -242 373 -482 834 -643 1235 -23 58 -46
114 -51 125 -5 11 -23 58 -40 105 -152 418 -266 835 -344 1258 -3 15 -7 36 -9
47 -2 11 -7 40 -11 65 -3 25 -9 59 -11 75 -7 37 -10 64 -27 193 -12 89 -17
107 -39 125 -38 34 -155 182 -178 226 -25 50 -38 58 -35 23 2 -15 6 -62 10
-105 4 -43 8 -88 10 -100 2 -12 6 -53 10 -92 6 -67 12 -112 20 -164 2 -13 7
-45 10 -70 4 -25 10 -68 15 -96 5 -27 12 -68 16 -90 68 -428 205 -933 375
-1392 105 -282 326 -769 439 -968 13 -22 36 -65 53 -95 115 -211 330 -546 494
-772 97 -133 239 -318 278 -362 6 -6 46 -54 90 -106 260 -308 628 -674 915
-911 36 -30 67 -56 70 -59 16 -17 254 -201 365 -282 783 -570 1677 -992 2608
-1232 179 -46 469 -110 547 -121 25 -3 52 -8 60 -10 8 -2 33 -6 55 -10 22 -3
65 -10 95 -15 121 -20 284 -41 445 -55 33 -4 74 -8 90 -10 223 -27 1057 -27
1295 0 19 2 69 7 110 10 41 3 86 8 100 10 14 2 50 7 80 10 30 3 66 8 80 10 14
2 48 7 75 10 44 5 287 45 370 61 191 36 591 132 723 173 494 154 819 280 1201
467 534 260 978 541 1441 909 143 114 219 178 390 329 69 62 487 483 555 560
39 43 75 84 80 90 6 6 33 38 60 71 28 33 52 62 55 65 3 3 36 43 73 90 38 47
74 92 80 100 101 126 354 489 464 665 438 703 771 1506 961 2320 33 141 50
216 57 255 8 40 24 132 30 170 3 19 8 42 10 50 4 16 5 20 34 230 25 177 28
194 36 295 4 44 8 91 10 105 2 14 7 79 10 145 4 66 8 147 10 180 7 105 4 705
-3 705 -2 0 -13 -24 -25 -52z"/>
<path d="M14894 7473 c-88 -83 -169 -151 -251 -209 -48 -34 -87 -68 -89 -76
-1 -8 -5 -41 -8 -74 -4 -32 -9 -70 -11 -84 -2 -14 -7 -45 -10 -70 -71 -534
-285 -1282 -506 -1758 -16 -35 -29 -65 -29 -68 0 -9 -161 -334 -210 -424 -80
-147 -94 -170 -161 -281 -116 -191 -317 -491 -395 -588 -7 -9 -57 -72 -111
-141 -361 -456 -794 -879 -1248 -1219 -60 -46 -118 -90 -129 -98 -47 -38 -385
-258 -506 -330 -461 -273 -959 -494 -1465 -652 -109 -34 -321 -92 -383 -106
-9 -2 -75 -17 -147 -34 -71 -17 -143 -33 -160 -36 -130 -24 -317 -56 -355 -60
-26 -3 -55 -7 -66 -9 -10 -2 -48 -7 -84 -11 -36 -3 -76 -8 -90 -10 -23 -3 -78
-9 -210 -20 -249 -23 -875 -23 -1075 -1 -16 2 -66 7 -110 10 -44 4 -91 9 -105
11 -14 2 -54 7 -90 10 -36 4 -72 9 -81 10 -9 2 -40 6 -70 10 -281 35 -706 131
-1054 238 -842 260 -1711 733 -2355 1283 -228 195 -260 224 -455 419 -154 153
-228 232 -325 344 -30 35 -60 69 -65 75 -6 6 -56 67 -111 136 -328 409 -589
820 -817 1282 -82 168 -227 500 -227 521 0 7 -4 17 -9 23 -4 5 -13 23 -19 39
-6 17 -35 100 -65 186 -83 235 -197 641 -222 788 -3 19 -8 37 -10 40 -2 4 -6
24 -10 46 -3 22 -16 89 -28 149 l-22 109 -75 -2 c-66 -2 -163 11 -254 34 l-28
8 6 -44 c9 -67 24 -152 51 -289 33 -164 30 -152 55 -255 12 -49 23 -97 25
-105 40 -178 175 -602 273 -850 105 -269 276 -633 413 -880 204 -369 525 -835
785 -1140 208 -244 471 -517 674 -700 46 -41 88 -80 94 -85 22 -21 193 -164
256 -214 36 -28 72 -58 81 -65 100 -83 458 -330 655 -452 234 -144 612 -343
839 -442 321 -139 564 -229 840 -312 125 -37 413 -114 465 -124 14 -3 68 -14
120 -26 52 -11 106 -23 120 -25 30 -6 193 -34 235 -41 17 -3 37 -7 45 -9 8 -2
44 -7 80 -10 36 -4 67 -8 70 -10 3 -2 39 -6 79 -10 41 -4 82 -8 90 -10 9 -1
54 -6 101 -10 47 -4 99 -9 115 -11 177 -18 782 -24 993 -10 57 4 131 9 165 11
34 2 82 6 107 9 25 3 65 8 90 10 133 15 166 19 182 21 9 2 38 6 65 10 98 14
139 20 253 41 47 9 96 18 110 20 131 23 506 115 683 169 193 58 395 128 577
200 451 178 937 433 1350 708 134 89 460 325 480 347 3 3 41 35 85 70 44 36
82 67 85 70 3 3 34 30 70 60 123 105 176 155 395 375 121 121 261 267 310 325
50 58 92 107 95 110 12 12 140 170 185 230 27 36 52 67 55 70 3 3 17 21 30 40
14 19 28 40 32 45 139 175 384 565 549 873 88 165 120 230 234 476 106 229
292 749 350 976 2 8 22 86 45 173 22 87 42 173 45 190 3 18 10 48 15 67 5 19
11 48 14 64 3 16 10 52 15 80 18 91 56 322 66 406 4 30 8 66 10 80 2 14 7 52
10 85 4 33 8 71 10 85 2 14 7 70 10 125 4 55 9 108 11 118 7 24 2 22 -42 -20z"/>
<path d="M13005 7298 c-48 -53 -53 -65 -69 -173 -7 -45 -33 -187 -42 -225 -3
-14 -7 -38 -10 -55 -3 -16 -23 -100 -45 -185 -119 -461 -262 -818 -512 -1280
-95 -176 -313 -501 -464 -690 -162 -204 -407 -466 -589 -630 -110 -99 -128
-115 -229 -196 -389 -314 -841 -585 -1276 -764 -68 -28 -133 -55 -144 -59 -17
-8 -114 -42 -225 -81 -77 -27 -273 -84 -395 -114 -130 -32 -158 -38 -225 -51
-14 -3 -50 -10 -80 -16 -30 -5 -64 -12 -75 -14 -56 -11 -297 -42 -380 -50
-293 -28 -766 -28 -1045 0 -53 5 -204 24 -240 30 -14 2 -54 9 -90 14 -36 6
-76 13 -90 16 -14 3 -38 7 -55 10 -201 34 -548 130 -790 218 -375 136 -663
279 -1074 532 -110 68 -469 335 -537 400 -6 5 -35 30 -64 55 -108 91 -351 331
-461 455 -24 27 -52 59 -63 70 -10 11 -63 76 -118 145 -55 69 -106 133 -114
143 -64 80 -272 392 -335 503 -10 19 -29 51 -40 72 -51 89 -170 326 -216 430
l-50 112 -21 -57 c-18 -49 -56 -115 -97 -169 -15 -20 140 -324 300 -589 127
-209 385 -567 500 -691 5 -6 39 -45 74 -85 152 -174 462 -472 646 -620 44 -35
82 -66 85 -69 3 -3 55 -42 115 -86 614 -450 1280 -759 2003 -930 98 -23 290
-62 337 -69 19 -2 79 -11 135 -20 28 -4 160 -21 230 -29 249 -29 878 -29 1105
-1 17 2 57 7 90 10 67 7 118 14 155 20 14 3 43 7 65 10 22 3 54 9 70 12 17 3
39 7 50 8 11 2 54 10 95 18 41 9 90 19 109 22 19 3 37 8 41 10 3 2 17 6 31 9
61 12 164 38 274 71 66 20 127 37 135 40 8 2 69 22 135 45 445 155 908 387
1290 649 77 53 288 208 330 243 170 140 194 162 299 258 134 123 340 336 457
475 19 22 36 42 39 45 3 3 40 48 81 100 604 758 1012 1705 1136 2635 l8 60
-51 53 c-29 28 -54 52 -56 52 -2 0 -26 -24 -53 -52z"/>
<path d="M13565 6874 c-5 -22 -9 -41 -10 -44 -19 -84 -42 -182 -57 -243 -10
-43 -19 -93 -20 -112 -1 -34 22 -80 51 -102 14 -10 121 -38 318 -83 75 -17
109 -13 146 20 33 29 53 80 73 189 3 14 18 81 35 150 16 69 31 133 33 143 3
13 -11 20 -63 33 -36 9 -77 19 -91 21 -14 3 -33 7 -42 10 -9 3 -25 7 -35 9
-10 2 -40 8 -67 15 -27 6 -52 7 -56 3 -4 -4 -14 -44 -24 -88 -9 -44 -19 -87
-21 -95 -2 -8 -8 -34 -13 -57 l-10 -43 37 -9 c20 -6 48 -12 63 -15 15 -2 32
-7 37 -11 10 -5 32 60 35 100 1 21 41 34 57 18 12 -12 -35 -203 -52 -214 -15
-9 -40 -5 -154 25 l-80 21 1 40 c1 37 53 269 69 307 5 12 -1 18 -27 24 -18 4
-37 9 -43 10 -5 2 -26 6 -46 10 -36 6 -37 6 -44 -32z"/>
<path d="M3033 6794 c-10 -44 -8 -60 28 -185 264 -937 845 -1815 1614 -2440
624 -508 1415 -876 2180 -1013 105 -19 243 -40 346 -52 24 -3 58 -7 74 -9 220
-26 695 -26 970 0 109 11 257 31 330 45 28 5 64 12 80 15 17 2 55 9 85 15 30
6 66 14 80 16 14 3 61 14 105 25 627 158 1208 428 1713 797 65 46 131 96 149
111 17 14 50 42 74 61 129 106 231 200 379 349 143 144 292 309 302 334 3 6
-127 70 -172 83 -10 3 -40 -23 -84 -73 -172 -196 -511 -520 -535 -512 -5 2
-54 60 -108 129 -55 69 -229 289 -388 490 -351 444 -501 633 -710 897 -88 110
-214 270 -280 354 -66 84 -133 167 -148 185 l-28 33 -36 -21 c-19 -12 -62 -31
-95 -43 l-59 -21 79 -100 c43 -54 161 -202 261 -329 203 -256 196 -248 231
-291 14 -17 37 -46 52 -65 14 -19 195 -248 402 -509 207 -261 411 -519 454
-574 42 -54 82 -103 87 -110 6 -6 37 -44 69 -85 l59 -74 -24 -18 c-147 -115
-495 -330 -704 -436 -391 -198 -898 -365 -1299 -428 -21 -4 -48 -8 -59 -11
-112 -21 -392 -48 -587 -57 l-55 -2 -2 1405 c-2 773 -3 1462 -3 1532 l0 127
-37 -22 c-21 -12 -64 -34 -98 -48 l-60 -26 -3 -1481 c-2 -1175 -5 -1482 -15
-1483 -19 -2 -273 10 -322 15 -55 6 -150 17 -175 21 -14 2 -45 6 -70 9 -39 5
-145 24 -232 41 -16 3 -38 7 -50 9 -13 2 -63 14 -113 26 -49 12 -98 23 -109
25 -74 16 -348 105 -496 162 -376 144 -760 354 -1083 590 l-67 50 37 49 c21
27 43 54 49 59 5 6 23 28 39 50 16 22 32 42 35 45 3 3 73 91 155 195 83 105
158 199 167 210 9 11 216 273 460 581 245 309 459 579 476 600 18 21 32 43 32
49 0 5 -24 11 -53 13 -28 1 -77 9 -107 17 l-55 15 -23 -28 c-12 -15 -123 -153
-245 -307 -122 -154 -227 -287 -234 -295 -11 -14 -353 -446 -408 -515 -13 -16
-105 -133 -206 -260 -100 -126 -203 -256 -227 -287 -25 -32 -49 -58 -54 -58
-8 0 -26 15 -123 99 -73 65 -351 345 -416 421 -277 319 -500 658 -684 1035
-77 158 -204 463 -220 527 -4 17 -28 43 -61 68 -89 67 -152 160 -211 309 -8
22 -10 20 -20 -25z"/>
<path d="M13495 6290 c-75 -16 -86 -33 -158 -245 -25 -71 -54 -157 -66 -190
-12 -32 -21 -64 -21 -70 0 -6 28 -21 63 -32 34 -12 154 -53 266 -92 112 -39
205 -70 206 -69 10 12 52 155 46 160 -3 4 -87 35 -186 69 -99 34 -184 65 -188
69 -13 12 58 205 77 208 10 2 99 -24 198 -58 99 -34 184 -58 188 -53 15 16 52
145 44 153 -5 4 -97 37 -204 74 -107 37 -204 70 -215 75 -11 4 -34 5 -50 1z"/>
<path d="M1959 5689 c-90 -45 -206 -101 -256 -125 -78 -36 -91 -46 -85 -61 30
-71 64 -133 72 -133 5 0 88 38 185 85 96 47 179 85 184 85 8 0 66 -120 59
-123 -1 -1 -19 -10 -38 -19 -224 -109 -325 -160 -328 -162 -3 -3 64 -144 73
-154 1 -1 29 11 61 27 160 82 306 151 313 147 14 -9 54 -105 48 -119 -5 -13
-84 -54 -287 -150 -36 -17 -67 -32 -69 -34 -6 -4 63 -152 71 -153 8 0 145 64
313 147 189 93 193 114 76 355 -43 90 -112 231 -153 315 l-74 152 -165 -80z"/>
<path d="M13181 5647 c-17 -38 -31 -75 -31 -82 0 -7 30 -25 68 -40 37 -16 85
-36 107 -46 139 -62 319 -139 331 -141 10 -2 25 21 44 67 17 38 30 74 30 80 0
6 -17 17 -37 25 -21 7 -67 26 -103 42 -74 33 -60 27 -242 106 l-136 59 -31
-70z"/>
<path d="M13479 5278 c-29 -58 -131 -252 -135 -256 -1 -2 -86 40 -188 92
l-186 97 -37 -76 c-23 -47 -34 -78 -28 -84 6 -5 105 -57 220 -116 116 -60 219
-114 230 -122 37 -25 49 -15 103 90 29 56 81 158 116 226 l64 124 -65 33 c-35
19 -66 34 -69 34 -2 0 -13 -19 -25 -42z"/>
<path d="M12812 4928 c-23 -38 -42 -72 -42 -76 0 -8 455 -285 475 -290 7 -2
32 27 54 65 32 53 38 70 28 80 -10 10 -229 146 -312 193 -16 9 -60 35 -96 57
l-66 41 -41 -70z"/>
<path d="M2439 4946 c-54 -16 -325 -196 -343 -228 -39 -65 -28 -92 119 -317
82 -125 112 -151 170 -151 34 0 41 4 213 116 222 146 223 155 68 392 -56 86
-110 163 -118 170 -28 22 -71 30 -109 18z m96 -268 c30 -46 55 -88 55 -95 0
-7 -43 -42 -97 -77 -79 -53 -100 -63 -115 -55 -27 15 -117 159 -110 177 6 17
180 132 199 132 7 0 37 -37 68 -82z"/>
<path d="M12600 4604 c-141 -198 -161 -235 -153 -279 9 -49 27 -69 125 -138
51 -36 98 -70 103 -74 6 -5 50 -37 99 -71 l89 -61 49 71 c28 39 46 73 41 77
-79 55 -104 74 -101 82 7 20 124 179 132 179 4 0 30 -16 56 -35 26 -19 52 -35
56 -35 5 0 25 24 44 53 19 28 41 58 48 66 14 15 13 15 -222 181 -58 41 -132
94 -164 117 -31 24 -61 43 -67 42 -5 0 -66 -79 -135 -175z m209 -85 c23 -16
41 -34 39 -38 -7 -21 -124 -180 -131 -181 -12 0 -75 49 -80 64 -3 7 7 30 22
52 70 104 93 134 100 134 4 0 27 -14 50 -31z"/>
<path d="M2799 4422 c-189 -152 -375 -306 -377 -313 -4 -11 291 -371 317 -386
37 -23 98 -16 139 14 38 29 81 73 83 86 1 4 3 12 4 17 1 6 3 17 4 26 1 11 7
13 21 9 21 -7 92 23 126 52 54 48 71 113 43 166 -7 12 -42 58 -78 102 -37 44
-100 122 -141 173 -41 50 -79 92 -84 91 -6 0 -32 -17 -57 -37z m152 -299 c34
-44 39 -55 29 -72 -20 -38 -45 -24 -115 61 l-66 83 27 24 28 24 29 -34 c15
-19 46 -57 68 -86z m-197 -87 c73 -88 81 -103 65 -122 -23 -29 -48 -14 -114
67 l-66 82 23 24 c12 13 25 22 29 21 4 -2 33 -34 63 -72z"/>
<path d="M12338 4248 c-79 -91 -120 -139 -220 -252 l-98 -111 58 -53 57 -53
24 28 c79 92 101 115 110 111 10 -3 219 -182 267 -228 16 -17 35 -30 41 -30 5
0 34 27 63 61 l53 61 -35 32 c-38 34 -231 202 -262 227 -20 17 -20 18 44 90
l64 72 -54 48 c-30 27 -58 49 -61 49 -3 0 -26 -24 -51 -52z"/>
<path d="M3187 3913 c-74 -69 -136 -127 -267 -251 l-75 -71 61 -62 62 -61 39
38 c47 45 253 238 325 305 l51 46 -49 55 c-27 31 -55 59 -62 62 -8 3 -43 -22
-85 -61z"/>
<path d="M11821 3692 c-189 -182 -186 -178 -129 -228 12 -11 95 -95 183 -187
87 -92 162 -166 166 -165 4 2 86 79 183 172 l176 169 -52 56 -53 57 -80 -77
c-44 -43 -97 -94 -119 -114 l-38 -37 -22 21 -21 22 93 88 c50 48 92 92 92 97
0 5 -22 32 -50 59 l-50 49 -37 -36 c-21 -20 -65 -61 -98 -91 -58 -54 -60 -55
-74 -35 -13 20 -8 27 102 132 l117 111 -49 53 c-27 28 -53 52 -58 52 -4 0 -86
-76 -182 -168z"/>
<path d="M3370 3743 c-57 -62 -283 -304 -314 -337 -19 -19 -19 -20 36 -70 30
-28 108 -100 174 -161 65 -60 123 -116 127 -122 15 -23 34 -13 81 41 l46 54
-125 117 -125 117 44 47 c25 25 57 60 73 77 15 16 58 62 96 102 37 40 67 76
67 80 0 8 -115 112 -123 112 -3 0 -28 -26 -57 -57z"/>
<path d="M3664 3210 c-93 -121 -169 -224 -169 -230 0 -6 87 -78 194 -160 l194
-149 45 60 c26 35 41 64 36 69 -9 8 -103 83 -165 130 -18 14 -45 35 -59 47
l-25 22 20 20 20 20 90 -70 c128 -100 116 -98 164 -29 23 33 40 63 37 67 -2 5
-47 40 -100 78 -52 39 -95 73 -95 76 -1 3 5 14 13 24 13 18 17 16 77 -31 35
-28 94 -73 130 -101 l66 -51 47 61 c25 33 43 64 39 68 -14 12 -367 284 -379
292 -7 4 -79 -81 -180 -213z"/>
<path d="M11530 3417 c-21 -11 -191 -140 -270 -204 -8 -7 -39 -31 -67 -53
l-53 -41 78 -98 c42 -54 88 -113 102 -131 107 -142 174 -219 184 -211 102 78
265 205 313 244 89 71 105 130 56 202 -52 77 -213 274 -232 284 -33 18 -85 22
-111 8z m100 -260 c66 -85 81 -110 72 -123 -13 -20 -164 -134 -171 -130 -4 3
-41 49 -83 103 l-76 99 85 66 c52 41 90 64 101 61 9 -3 42 -37 72 -76z"/>
<path d="M4496 2882 c-4 -31 -9 -75 -11 -97 -3 -22 -9 -85 -15 -140 -6 -55
-12 -118 -15 -140 -2 -22 -7 -69 -11 -105 -3 -36 -8 -67 -10 -69 -4 -4 115
-77 142 -88 10 -4 101 64 439 330 28 22 51 42 52 46 4 10 -137 83 -151 78 -7
-3 -78 -59 -158 -125 -80 -67 -148 -119 -150 -116 -3 2 -2 26 2 52 9 56 17
117 26 192 3 30 10 75 14 100 10 53 10 53 -81 103 l-67 37 -6 -58z"/>
<path d="M10540 2756 c-128 -72 -205 -121 -204 -130 2 -14 231 -434 257 -470
13 -18 22 -14 173 69 280 154 288 160 298 225 5 36 -9 68 -96 226 -92 166
-110 185 -175 191 -45 3 -59 -3 -253 -111z m266 -149 c62 -112 67 -125 61
-140 -5 -13 -167 -107 -184 -107 -8 0 -21 21 -91 151 l-41 76 42 22 c23 12 66
34 96 50 29 16 59 27 65 25 7 -3 30 -37 52 -77z"/>
<path d="M5084 2561 c-17 -10 -38 -34 -46 -52 -12 -26 -131 -302 -174 -405 -6
-14 146 -78 157 -67 5 5 19 34 32 65 l22 56 105 -44 c57 -25 106 -46 107 -48
2 -1 -9 -31 -23 -65 -14 -35 -23 -66 -20 -69 7 -6 138 -62 147 -62 7 0 17 23
143 320 46 107 80 198 77 202 -15 17 -437 188 -465 188 -17 0 -45 -9 -62 -19z
m220 -202 c91 -39 94 -42 86 -65 -20 -52 -42 -85 -53 -81 -67 28 -193 81 -195
83 -7 5 20 75 35 89 20 20 19 20 127 -26z"/>
<path d="M10035 2512 c-77 -33 -175 -74 -217 -92 -43 -17 -78 -36 -78 -41 0
-8 209 -510 215 -517 4 -4 138 49 149 59 5 5 -24 87 -68 193 -43 102 -75 189
-72 194 3 5 46 26 97 47 63 27 96 36 106 29 13 -8 33 -51 126 -274 43 -101 35
-97 114 -65 37 16 72 32 76 35 12 10 -168 429 -196 458 -46 45 -93 41 -252
-26z"/>
<path d="M5674 2353 c-3 -10 -10 -29 -15 -43 -22 -64 -149 -483 -147 -485 2
-1 95 -30 208 -65 113 -35 222 -69 243 -76 43 -15 40 -18 70 84 l16 51 -117
36 c-205 63 -213 67 -209 79 2 6 13 40 25 76 73 231 93 303 86 310 -8 7 -137
50 -150 50 -3 0 -7 -8 -10 -17z"/>
<path d="M9535 2323 c-60 -19 -117 -36 -125 -38 -68 -17 -170 -50 -193 -62
-34 -17 -67 -69 -67 -104 0 -21 124 -457 133 -466 3 -2 90 22 138 39 l27 9
-20 66 c-11 35 -18 67 -15 69 5 5 199 64 212 64 6 0 19 -29 29 -65 19 -65 19
-66 49 -59 17 3 53 14 81 24 40 14 50 21 48 36 -4 20 -96 340 -111 384 -5 14
-17 51 -26 83 -12 41 -22 57 -33 56 -10 -1 -66 -17 -127 -36z m51 -270 c-5 -5
-201 -63 -213 -63 -13 0 -36 72 -31 98 2 12 34 26 108 48 l105 32 17 -56 c9
-31 16 -57 14 -59z"/>
<path d="M6199 2190 c-1 -11 -2 -23 -3 -27 -11 -43 -99 -460 -103 -485 -2 -16
-2 -28 1 -28 2 0 58 -12 123 -26 65 -14 129 -28 143 -30 14 -2 50 -10 80 -16
30 -6 60 -12 66 -14 6 -1 25 -5 42 -9 l30 -6 16 72 c9 39 15 73 13 75 -4 4
-288 67 -304 67 -16 0 -12 48 4 54 8 3 32 1 56 -5 23 -6 58 -14 77 -17 19 -3
53 -11 74 -16 41 -11 54 -3 57 31 0 8 3 29 6 45 13 71 19 66 -114 94 -115 23
-123 26 -123 48 0 13 6 23 14 23 8 0 79 -13 158 -30 78 -16 146 -30 149 -30 5
0 13 35 19 82 1 4 5 21 10 38 5 16 7 30 5 30 -1 0 -47 9 -100 20 -54 11 -107
22 -119 24 -11 3 -76 16 -143 30 -67 14 -124 26 -127 26 -3 0 -7 -9 -7 -20z"/>
<path d="M8545 2095 c-253 -34 -258 -35 -282 -51 -55 -35 -65 -88 -44 -224 5
-36 12 -87 16 -115 12 -94 17 -120 31 -147 15 -29 78 -67 104 -63 8 1 42 5 75
9 33 3 71 8 85 10 14 3 48 7 75 11 84 10 129 16 150 20 11 2 33 4 48 4 28 1
28 1 23 54 -7 62 -16 132 -22 167 -2 14 -7 50 -10 80 -4 30 -9 58 -13 62 -4 4
-33 3 -66 -2 -33 -5 -82 -11 -110 -15 -27 -3 -65 -8 -84 -12 l-33 -6 6 -51
c10 -85 12 -91 33 -94 10 -2 38 1 61 6 44 10 50 7 57 -28 5 -24 1 -26 -60 -34
-27 -3 -73 -8 -101 -11 -36 -5 -53 -3 -61 7 -18 22 -41 232 -26 241 11 7 106
22 198 33 33 3 80 9 105 13 l45 7 -2 54 c-2 63 -10 100 -21 99 -4 -1 -83 -11
-177 -24z"/>
<path d="M6719 2098 c0 -2 -2 -23 -5 -48 -2 -25 -6 -57 -8 -72 -5 -26 -3 -27
52 -33 31 -4 66 -8 77 -10 11 -2 28 -4 39 -4 17 -1 18 -7 12 -68 -12 -107 -18
-163 -31 -285 -7 -62 -6 -68 11 -69 11 0 30 -2 44 -4 14 -2 44 -6 67 -8 l41
-4 6 41 c6 41 13 103 21 181 20 195 20 198 43 191 9 -3 52 -8 95 -12 70 -5 77
-4 78 13 0 10 2 27 4 38 14 83 13 95 -9 96 -11 0 -30 2 -41 4 -11 2 -47 7 -80
10 -33 3 -71 8 -85 10 -14 2 -54 7 -90 10 -36 4 -96 10 -135 15 -72 10 -104
12 -106 8z"/>
<path d="M7309 2013 c0 -15 -2 -55 -4 -88 -1 -33 -6 -130 -10 -215 -3 -85 -7
-174 -9 -197 l-2 -43 45 -1 c25 0 63 -2 84 -4 20 -1 39 0 41 4 4 6 11 134 22
391 3 85 8 158 10 161 7 12 -18 16 -98 18 l-78 2 -1 -28z"/>
<path d="M7790 2033 c-8 -1 -64 -4 -125 -5 l-110 -3 3 -160 c2 -88 5 -200 7
-250 2 -49 3 -106 4 -126 l1 -35 73 2 c39 1 78 3 85 3 11 1 12 41 8 211 l-5
210 114 0 114 0 5 -32 c3 -18 8 -112 10 -208 3 -96 5 -175 5 -175 1 -1 16 0
34 1 17 1 56 2 85 3 l53 1 -6 227 c-4 128 -12 241 -18 261 -22 66 -51 77 -195
77 -70 0 -134 -1 -142 -2z"/>
</g>
</svg>
